<?xml version="1.0" encoding="UTF-8" standalone="no"?>
<svg
   xmlns:dc="http://purl.org/dc/elements/1.1/"
   xmlns:cc="http://creativecommons.org/ns#"
   xmlns:rdf="http://www.w3.org/1999/02/22-rdf-syntax-ns#"
   xmlns:svg="http://www.w3.org/2000/svg"
   xmlns="http://www.w3.org/2000/svg"
   xmlns:sodipodi="http://sodipodi.sourceforge.net/DTD/sodipodi-0.dtd"
   xmlns:inkscape="http://www.inkscape.org/namespaces/inkscape"
   id="svg"
   version="1.1"
   width="400"
   height="144.7721179624665"
   viewBox="0 0 400 144.7721179624665"
   sodipodi:docname="consolegame.svg"
   inkscape:version="0.92.3 (2405546, 2018-03-11)">
  <metadata
     id="metadata19876">
    <rdf:RDF>
      <cc:Work
         rdf:about="">
        <dc:format>image/svg+xml</dc:format>
        <dc:type
           rdf:resource="http://purl.org/dc/dcmitype/StillImage" />
        <dc:title></dc:title>
      </cc:Work>
    </rdf:RDF>
  </metadata>
  <defs
     id="defs19874" />
  <sodipodi:namedview
     pagecolor="#ffffff"
     bordercolor="#666666"
     borderopacity="1"
     objecttolerance="10"
     gridtolerance="10"
     guidetolerance="10"
     inkscape:pageopacity="0"
     inkscape:pageshadow="2"
     inkscape:window-width="1920"
     inkscape:window-height="1017"
     id="namedview19872"
     showgrid="false"
     inkscape:pagecheckerboard="true"
     inkscape:zoom="3.685"
     inkscape:cx="200"
     inkscape:cy="83.240879"
     inkscape:window-x="-8"
     inkscape:window-y="-8"
     inkscape:window-maximized="1"
     inkscape:current-layer="svg" />
  <path
     inkscape:connector-curvature="0"
     style="fill:none;fill-rule:evenodd;stroke:none;stroke-opacity:1"
     d="m 0,72.333 v 72.334 h 42.167 c 42.055,0 42.166,-0.001 42.166,-0.334 0,-0.183 -0.082,-0.333 -0.183,-0.333 -0.232,0 -1.65,-1.491 -1.65,-1.735 0,-0.101 -0.225,-0.395 -0.5,-0.655 -0.275,-0.259 -0.5,-0.565 -0.5,-0.678 0,-0.114 -0.195,-0.389 -0.433,-0.611 -0.237,-0.223 -0.538,-0.608 -0.668,-0.858 -0.13,-0.25 -0.816,-1.211 -1.526,-2.137 -0.709,-0.926 -1.446,-1.942 -1.637,-2.258 -0.191,-0.316 -0.51,-0.726 -0.708,-0.911 -0.199,-0.185 -0.361,-0.402 -0.361,-0.481 0,-0.132 -0.279,-0.508 -1.5,-2.024 -0.229,-0.285 -0.567,-0.766 -0.75,-1.07 -0.45,-0.745 -2.781,-3.818 -2.949,-3.888 -0.074,-0.03 -0.135,-0.136 -0.135,-0.234 0,-0.156 -1,-1.572 -1.62,-2.293 -0.427,-0.496 -1.713,-2.298 -1.713,-2.4 0,-0.057 -0.225,-0.339 -0.5,-0.627 -0.275,-0.287 -0.5,-0.62 -0.5,-0.739 0,-0.118 -0.143,-0.315 -0.317,-0.437 -0.174,-0.122 -0.488,-0.52 -0.698,-0.885 -0.21,-0.364 -0.592,-0.925 -0.85,-1.246 -0.258,-0.32 -0.62,-0.77 -0.805,-1 -0.594,-0.736 -1.457,-1.947 -1.668,-2.341 -0.112,-0.211 -0.383,-0.561 -0.6,-0.778 -0.217,-0.218 -0.395,-0.464 -0.395,-0.547 0,-0.084 -0.169,-0.324 -0.375,-0.534 -0.207,-0.211 -0.584,-0.683 -0.838,-1.05 -0.961,-1.383 -1.3,-1.846 -1.663,-2.269 -0.206,-0.239 -0.674,-0.867 -1.041,-1.394 -0.367,-0.527 -0.87,-1.218 -1.118,-1.537 -0.249,-0.318 -0.498,-0.722 -0.553,-0.898 -0.056,-0.175 -0.164,-0.318 -0.241,-0.318 -0.077,0 -0.337,-0.338 -0.579,-0.75 -0.242,-0.413 -0.5,-0.75 -0.573,-0.75 -0.073,0 -0.212,-0.174 -0.309,-0.387 -0.096,-0.212 -0.465,-0.731 -0.818,-1.152 -2.621,-3.122 -2.834,-3.974 -1.142,-4.555 1.115,-0.383 2.345,-1.231 2.888,-1.99 0.196,-0.275 0.476,-0.663 0.621,-0.862 0.968,-1.327 0.847,-5.327 -0.238,-7.888 -0.175,-0.412 -0.434,-1.237 -0.575,-1.833 -0.142,-0.596 -0.409,-1.501 -0.594,-2.012 -0.91,-2.513 -0.807,-3.432 0.492,-4.405 0.367,-0.275 0.907,-0.706 1.199,-0.958 0.292,-0.252 0.608,-0.459 0.702,-0.459 0.094,0 0.434,-0.225 0.755,-0.499 0.32,-0.275 0.664,-0.5 0.762,-0.5 0.098,0 0.548,-0.263 0.999,-0.584 C 59.38,75.263 59.855,75 59.985,75 c 0.13,0 0.571,-0.196 0.981,-0.437 0.409,-0.24 1.187,-0.539 1.728,-0.666 0.541,-0.126 1.262,-0.37 1.603,-0.542 0.341,-0.173 1.182,-0.405 1.87,-0.516 0.687,-0.112 1.896,-0.346 2.687,-0.521 0.79,-0.175 1.84,-0.315 2.333,-0.312 1.75,0.011 8.658,1.02 9.553,1.395 0.361,0.151 1.28,0.384 2.043,0.517 0.762,0.133 1.723,0.395 2.134,0.582 0.412,0.188 0.94,0.414 1.174,0.503 0.458,0.174 0.909,1.04 0.909,1.747 0,0.235 0.194,0.887 0.43,1.449 0.237,0.563 0.503,1.479 0.592,2.037 0.088,0.558 0.317,1.314 0.509,1.681 0.192,0.366 0.45,1.242 0.574,1.946 0.124,0.703 0.394,1.566 0.602,1.916 0.464,0.786 0.482,11.248 0.028,16.554 -0.274,3.198 -0.475,8.462 -0.742,19.417 -0.096,3.942 -0.244,7.842 -0.329,8.667 -0.085,0.825 -0.26,3.98 -0.39,7.012 -0.234,5.489 -0.338,6.238 -0.872,6.238 -0.234,0 -0.735,0.548 -0.735,0.804 0,0.149 37.061,0.196 156.666,0.196 H 400 V 72.333 0 H 238.167 C 78.427,0 76.333,0.004 76.333,0.322 c 0,0.259 0.184,0.355 0.959,0.498 1.698,0.314 2.448,0.528 2.72,0.774 0.146,0.132 0.672,0.36 1.169,0.506 0.496,0.145 1.052,0.395 1.236,0.555 0.183,0.16 0.595,0.389 0.916,0.508 0.321,0.12 0.846,0.381 1.167,0.581 1.25,0.78 2.437,1.486 2.873,1.711 0.251,0.129 0.513,0.331 0.583,0.449 0.07,0.117 0.305,0.308 0.523,0.422 2.208,1.16 9.414,7.728 13.604,12.399 0.55,0.613 1.263,1.403 1.584,1.754 0.32,0.352 0.771,0.874 1,1.162 0.229,0.287 0.569,0.691 0.756,0.899 0.186,0.207 0.599,0.737 0.916,1.178 1.115,1.548 2.349,3.144 2.601,3.365 0.105,0.092 0.387,0.486 0.627,0.875 0.241,0.39 0.506,0.709 0.591,0.709 0.084,0 0.2,0.148 0.257,0.329 0.058,0.182 0.363,0.639 0.678,1.016 0.316,0.377 0.574,0.773 0.574,0.879 0,0.106 0.225,0.455 0.5,0.776 0.274,0.321 0.499,0.661 0.499,0.756 0,0.095 0.223,0.433 0.494,0.75 0.271,0.317 0.496,0.654 0.5,0.747 0.004,0.094 0.218,0.432 0.475,0.75 0.258,0.319 0.566,0.821 0.685,1.116 0.119,0.295 0.326,0.628 0.46,0.739 0.134,0.111 0.397,0.508 0.584,0.881 0.187,0.372 0.47,0.827 0.628,1.011 0.158,0.183 0.387,0.595 0.508,0.916 0.121,0.321 0.357,0.737 0.524,0.924 0.166,0.187 0.391,0.6 0.499,0.917 0.108,0.317 0.372,0.788 0.587,1.047 0.215,0.259 0.44,0.67 0.501,0.913 0.061,0.243 0.323,0.776 0.583,1.186 0.26,0.41 0.473,0.87 0.473,1.023 0,0.154 0.159,0.481 0.353,0.727 0.194,0.247 0.5,0.839 0.68,1.315 0.18,0.476 0.428,0.977 0.55,1.115 0.122,0.137 0.39,0.775 0.595,1.417 0.206,0.641 0.475,1.322 0.598,1.513 0.124,0.191 0.34,0.753 0.481,1.25 0.141,0.497 0.397,1.166 0.568,1.487 0.171,0.32 0.403,1.07 0.515,1.666 0.112,0.596 0.342,1.314 0.511,1.596 0.168,0.282 0.388,1.069 0.488,1.75 0.1,0.681 0.299,1.8 0.443,2.488 0.606,2.899 0.619,6.147 0.034,8.184 -0.174,0.606 -0.317,1.244 -0.317,1.417 -0.002,0.561 -0.323,1.492 -0.629,1.824 -0.165,0.179 -0.392,0.55 -0.505,0.825 -1.355,3.292 -8.691,5.966 -8.7,3.171 -10e-4,-0.278 -0.176,-0.88 -0.388,-1.338 -0.212,-0.458 -0.493,-1.202 -0.623,-1.652 -0.173,-0.594 -0.375,-0.9 -0.738,-1.115 -0.275,-0.163 -0.581,-0.367 -0.68,-0.454 -1.608,-1.4 -4.444,1.597 -3.417,3.611 0.176,0.345 0.439,1.202 0.584,1.906 0.146,0.704 0.412,1.563 0.592,1.908 0.18,0.346 0.398,1.124 0.483,1.729 0.086,0.605 0.319,1.419 0.518,1.809 0.198,0.39 0.434,1.16 0.523,1.712 0.088,0.551 0.313,1.301 0.5,1.666 0.186,0.365 0.412,1.123 0.502,1.683 0.09,0.561 0.267,1.247 0.392,1.525 0.551,1.22 0.455,1.917 -0.411,2.981 -1.168,1.434 -3.623,0.94 -4.256,-0.856 -0.153,-0.433 -0.417,-1.124 -0.588,-1.536 -0.171,-0.413 -0.396,-1.2 -0.502,-1.75 -0.105,-0.55 -0.371,-1.423 -0.591,-1.939 -0.22,-0.516 -0.448,-1.304 -0.506,-1.75 -0.059,-0.446 -0.24,-1.111 -0.402,-1.478 -0.356,-0.805 -0.593,-1.607 -0.737,-2.5 -0.06,-0.367 -0.256,-0.955 -0.437,-1.308 -0.181,-0.353 -0.437,-1.208 -0.569,-1.899 -0.133,-0.692 -0.359,-1.438 -0.503,-1.658 -0.145,-0.22 -0.402,-1.037 -0.572,-1.816 -0.17,-0.778 -0.417,-1.581 -0.549,-1.783 -0.132,-0.203 -0.372,-0.961 -0.532,-1.684 -0.16,-0.723 -0.434,-1.548 -0.608,-1.833 -0.173,-0.286 -0.316,-0.678 -0.316,-0.873 -0.003,-1.212 -2.267,-2.311 -3.535,-1.716 -1.093,0.512 -2.084,3.142 -1.365,3.621 0.238,0.159 0.4,0.628 0.568,1.642 0.078,0.472 0.307,1.222 0.51,1.666 0.203,0.444 0.476,1.329 0.609,1.967 0.132,0.637 0.377,1.426 0.543,1.754 0.167,0.327 0.4,1.08 0.516,1.673 0.117,0.593 0.343,1.304 0.503,1.58 0.16,0.275 0.383,0.988 0.495,1.584 0.112,0.595 0.36,1.383 0.551,1.75 0.496,0.954 0.498,2.962 0.003,3.666 -0.193,0.275 -0.476,0.707 -0.629,0.959 -0.153,0.252 -0.348,0.458 -0.435,0.458 -0.086,0 -0.512,0.225 -0.945,0.5 -1.796,1.139 -5.223,-0.505 -5.223,-2.505 0,-0.096 -0.144,-0.457 -0.32,-0.802 -0.176,-0.344 -0.441,-1.212 -0.589,-1.928 -0.148,-0.716 -0.384,-1.525 -0.525,-1.799 -0.142,-0.273 -0.368,-1.026 -0.503,-1.674 -0.135,-0.647 -0.397,-1.51 -0.582,-1.917 -0.186,-0.407 -0.404,-1.15 -0.486,-1.651 -0.081,-0.502 -0.335,-1.308 -0.564,-1.791 -0.228,-0.483 -0.49,-1.341 -0.581,-1.907 -0.18,-1.115 -0.208,-1.183 -0.833,-1.976 -0.306,-0.388 -0.65,-0.588 -1.261,-0.731 -0.462,-0.109 -1.196,-0.377 -1.632,-0.595 -0.436,-0.219 -1.149,-0.444 -1.584,-0.5 -0.435,-0.057 -1.09,-0.245 -1.457,-0.419 -0.367,-0.174 -1.304,-0.429 -2.083,-0.566 -0.78,-0.138 -1.905,-0.371 -2.5,-0.519 -2.68,-0.666 -10.192,-0.761 -11.834,-0.151 -0.412,0.154 -1.4,0.421 -2.194,0.595 -0.795,0.173 -1.732,0.46 -2.084,0.636 -0.351,0.177 -0.938,0.374 -1.305,0.439 -0.367,0.064 -0.929,0.284 -1.25,0.489 -0.321,0.205 -0.886,0.461 -1.256,0.568 -0.37,0.108 -0.824,0.337 -1.009,0.51 -0.186,0.172 -0.633,0.408 -0.994,0.524 -0.362,0.116 -0.808,0.343 -0.991,0.504 -0.183,0.162 -0.596,0.425 -0.917,0.587 -0.627,0.315 -0.951,0.558 -2.75,2.063 C 49.939,76.778 49,77.76 49,78.206 c 0,0.606 0.634,3.103 0.985,3.877 0.166,0.367 0.399,1.188 0.517,1.825 0.118,0.637 0.348,1.387 0.511,1.667 0.163,0.279 0.383,0.996 0.489,1.592 0.107,0.596 0.355,1.416 0.552,1.822 1.01,2.084 -0.183,4.178 -2.381,4.178 -1.15,0 -2.178,-0.962 -2.509,-2.348 -0.118,-0.496 -0.35,-1.165 -0.515,-1.486 C 46.484,89.013 46.23,88.167 46.084,87.455 45.938,86.743 45.68,85.918 45.511,85.622 45.342,85.326 45.11,84.558 44.996,83.917 44.881,83.275 44.643,82.462 44.466,82.11 44.29,81.759 44.039,80.918 43.91,80.241 43.492,78.056 42.631,77.173 40.917,77.17 c -2.313,-0.005 -3.129,2.553 -1.768,5.542 0.186,0.409 0.457,1.314 0.601,2.012 0.144,0.698 0.446,1.664 0.671,2.147 0.225,0.484 0.41,1.084 0.411,1.334 10e-4,0.25 0.191,0.959 0.424,1.577 0.232,0.617 0.536,1.67 0.674,2.34 0.138,0.669 0.389,1.46 0.557,1.756 0.168,0.296 0.397,1.024 0.508,1.618 0.112,0.593 0.345,1.357 0.518,1.697 0.174,0.339 0.421,1.227 0.55,1.971 0.13,0.745 0.349,1.482 0.489,1.637 0.139,0.155 0.372,0.861 0.518,1.569 0.145,0.707 0.425,1.682 0.621,2.166 0.197,0.485 0.415,1.271 0.485,1.749 0.07,0.477 0.314,1.265 0.543,1.75 0.229,0.485 0.47,1.257 0.536,1.715 0.066,0.458 0.291,1.246 0.5,1.75 0.209,0.504 0.458,1.341 0.554,1.86 0.096,0.519 0.365,1.398 0.599,1.953 0.654,1.555 0.623,3.716 -0.068,4.622 -2.237,2.937 -6.295,2.194 -7.111,-1.302 -0.132,-0.566 -0.312,-1.115 -0.4,-1.222 -0.089,-0.107 -0.315,-0.811 -0.502,-1.565 -0.188,-0.754 -0.487,-1.741 -0.666,-2.193 -0.178,-0.452 -0.432,-1.34 -0.564,-1.972 -0.131,-0.633 -0.355,-1.374 -0.496,-1.647 -0.142,-0.274 -0.378,-1.087 -0.526,-1.807 -0.148,-0.721 -0.405,-1.535 -0.571,-1.81 -0.166,-0.275 -0.397,-1.063 -0.514,-1.75 -0.116,-0.688 -0.339,-1.438 -0.494,-1.667 -0.156,-0.229 -0.374,-0.942 -0.485,-1.583 -0.112,-0.642 -0.38,-1.58 -0.597,-2.084 -0.217,-0.504 -0.468,-1.378 -0.559,-1.941 -0.09,-0.564 -0.314,-1.317 -0.496,-1.675 -0.182,-0.357 -0.441,-1.171 -0.576,-1.808 -0.808,-3.821 -2.921,-5.5 -6.219,-4.943 -2.718,0.459 -4.142,3.912 -2.865,6.951 0.231,0.55 0.517,1.487 0.636,2.083 0.119,0.596 0.347,1.348 0.508,1.671 0.161,0.323 0.385,1.073 0.498,1.666 0.113,0.594 0.374,1.492 0.581,1.996 0.206,0.504 0.467,1.367 0.579,1.917 0.112,0.55 0.337,1.263 0.499,1.583 0.161,0.321 0.386,1.034 0.498,1.584 0.112,0.55 0.378,1.412 0.593,1.916 0.214,0.504 0.463,1.379 0.554,1.944 0.091,0.565 0.358,1.448 0.593,1.963 1.002,2.19 0.522,3.374 -1.702,4.19 -1.333,0.49 -2.809,-0.898 -3.379,-3.177 -0.176,-0.703 -0.376,-1.366 -0.445,-1.474 -0.226,-0.351 -0.54,-1.354 -0.543,-1.729 -0.002,-0.36 -0.089,-0.615 -0.669,-1.967 -0.157,-0.366 -0.335,-0.983 -0.394,-1.369 -0.252,-1.64 -0.209,-1.619 -3.122,-1.553 -1.662,0.038 -3.528,-0.2 -3.901,-0.496 -0.091,-0.073 -0.505,-0.234 -0.919,-0.357 -1.163,-0.347 -2.296,-1.112 -3.577,-2.417 -1.266,-1.291 -2.42,-2.63 -2.42,-2.809 0,-0.062 -0.263,-0.419 -0.584,-0.794 C 8.763,99.913 8.5,99.526 8.5,99.428 8.499,99.33 8.282,98.995 8.016,98.684 7.75,98.373 7.493,97.922 7.445,97.683 7.397,97.443 7.183,97.044 6.971,96.796 6.758,96.548 6.485,96.028 6.365,95.642 6.244,95.255 6.011,94.747 5.846,94.511 5.681,94.276 5.45,93.675 5.332,93.177 5.215,92.678 4.986,92.041 4.825,91.76 4.663,91.48 4.441,90.8 4.331,90.25 4.221,89.7 3.993,88.875 3.824,88.417 3.655,87.958 3.363,86.854 3.175,85.962 2.987,85.071 2.725,84.058 2.592,83.712 2.458,83.366 2.231,82.133 2.085,80.972 1.94,79.811 1.715,78.461 1.584,77.972 0.398,73.527 0.401,52.481 1.589,47.876 c 0.124,-0.48 0.345,-1.755 0.491,-2.833 0.146,-1.078 0.408,-2.41 0.583,-2.96 0.174,-0.55 0.442,-1.637 0.596,-2.416 0.153,-0.78 0.409,-1.68 0.569,-2 0.159,-0.321 0.383,-1.07 0.497,-1.664 0.114,-0.594 0.337,-1.269 0.497,-1.5 0.16,-0.231 0.387,-0.795 0.506,-1.253 0.118,-0.458 0.43,-1.277 0.694,-1.818 C 6.285,30.89 6.5,30.319 6.5,30.163 c 0,-0.157 0.147,-0.472 0.327,-0.7 0.18,-0.229 0.481,-0.829 0.67,-1.333 0.189,-0.505 0.492,-1.052 0.673,-1.216 0.182,-0.165 0.33,-0.399 0.33,-0.52 0,-0.122 0.379,-0.767 0.842,-1.433 0.463,-0.666 1.029,-1.495 1.256,-1.842 0.227,-0.347 0.561,-0.778 0.741,-0.958 0.18,-0.18 0.328,-0.391 0.328,-0.468 0,-0.218 2.283,-2.495 3.62,-3.61 1.792,-1.494 2.108,-1.716 2.957,-2.08 0.427,-0.184 0.89,-0.446 1.028,-0.585 0.138,-0.138 0.452,-0.291 0.698,-0.339 0.246,-0.049 0.873,-0.311 1.393,-0.584 1.169,-0.611 2.589,-0.66 5.077,-0.174 3.868,0.754 10.728,0.765 14.893,0.022 0.963,-0.172 2.393,-0.394 3.178,-0.495 0.785,-0.1 1.723,-0.322 2.083,-0.494 0.361,-0.171 1.031,-0.364 1.489,-0.427 0.459,-0.064 1.171,-0.284 1.584,-0.49 0.412,-0.206 1.087,-0.478 1.5,-0.604 0.412,-0.126 0.937,-0.35 1.166,-0.498 0.23,-0.148 0.754,-0.411 1.167,-0.583 0.413,-0.173 0.9,-0.438 1.083,-0.589 C 54.767,10.011 55.179,9.788 55.5,9.667 55.821,9.545 56.233,9.316 56.417,9.156 56.6,8.997 57.102,8.702 57.533,8.502 57.964,8.302 58.408,8.028 58.52,7.893 58.632,7.758 58.986,7.538 59.307,7.404 59.627,7.27 59.994,7.012 60.121,6.83 60.248,6.649 60.446,6.5 60.56,6.5 c 0.115,0 0.495,-0.263 0.845,-0.583 0.35,-0.321 0.7,-0.584 0.777,-0.584 0.077,0 0.416,-0.243 0.754,-0.541 C 63.738,4.085 64.563,3.371 65.296,2.75 65.62,2.475 66.155,1.983 66.485,1.656 66.814,1.329 67.29,0.975 67.542,0.868 67.827,0.747 68,0.546 68,0.337 V 0 H 34 0 V 72.333 M 73.375,15.275 C 73.169,15.32 73,15.417 73,15.491 c 0,0.075 -0.223,0.228 -0.496,0.341 -0.528,0.218 -1.837,1.535 -1.837,1.847 0,0.103 -0.106,0.424 -0.235,0.712 -0.81,1.812 0.438,4.491 2.424,5.205 3.203,1.153 6.644,-0.915 6.644,-3.992 0,-1.675 -0.575,-3.005 -1.499,-3.466 -0.23,-0.115 -0.638,-0.358 -0.907,-0.54 -0.49,-0.332 -2.769,-0.529 -3.719,-0.323 M 83,22.501 c -3.116,0.212 -4.833,2.913 -3.75,5.899 0.229,0.632 0.417,1.167 0.417,1.189 0,0.022 0.534,0.362 1.187,0.757 2.506,1.514 5.612,0.709 6.956,-1.803 C 88.058,28.08 88.056,25.25 87.808,24.781 86.826,22.925 85.566,22.327 83,22.501 m -14.333,2.537 c -0.321,0.086 -0.702,0.263 -0.847,0.393 -0.145,0.13 -0.38,0.236 -0.522,0.236 -0.331,0 -1.965,1.641 -1.965,1.973 0,0.138 -0.112,0.374 -0.249,0.526 -0.719,0.794 -0.234,3.189 0.89,4.391 1.796,1.924 5.656,1.902 6.911,-0.037 0.155,-0.24 0.469,-0.692 0.699,-1.003 0.445,-0.606 0.61,-2.986 0.269,-3.881 -0.579,-1.519 -3.59,-3.027 -5.186,-2.598 m 219.166,1.533 c 0.797,0.779 1.345,1.333 1.53,1.548 0.325,0.375 1.515,1.675 1.804,1.97 1.354,1.382 1.079,1.911 -0.995,1.911 -1.607,0 -2.162,-0.208 -3.175,-1.188 -0.414,-0.401 -1.365,-1.267 -2.112,-1.925 -3.456,-3.041 -3.456,-3.055 -0.073,-3.052 l 2.271,0.002 0.75,0.734 M 27.917,30.225 c -0.367,0.105 -0.821,0.28 -1.009,0.388 -0.187,0.108 -0.724,0.342 -1.191,0.519 -1.358,0.516 -5.217,4.242 -5.217,5.037 0,0.114 -0.241,0.666 -0.536,1.227 l -0.535,1.021 -0.006,3.083 -0.006,3.083 0.541,0.982 c 0.298,0.54 0.542,1.082 0.542,1.205 0,0.779 3.024,3.952 4.334,4.548 0.321,0.146 0.848,0.43 1.17,0.63 0.793,0.494 4.35,1.284 5.233,1.162 1.902,-0.262 4.038,-0.804 4.582,-1.162 0.329,-0.217 0.808,-0.446 1.065,-0.51 0.57,-0.141 3.949,-3.49 3.949,-3.914 0,-0.162 0.134,-0.44 0.298,-0.618 0.348,-0.377 0.598,-0.998 0.867,-2.154 0.106,-0.457 0.272,-0.926 0.369,-1.042 0.309,-0.373 0.374,-3.096 0.094,-3.991 -0.241,-0.773 -0.507,-1.814 -0.702,-2.749 -0.051,-0.246 -0.197,-0.55 -0.323,-0.677 -0.127,-0.127 -0.382,-0.526 -0.568,-0.887 -0.691,-1.344 -3.449,-3.837 -4.785,-4.325 -0.458,-0.168 -0.923,-0.373 -1.032,-0.456 -0.772,-0.584 -5.561,-0.853 -7.134,-0.4 m 49.15,2.086 c -1.155,0.205 -2.849,1.689 -3.223,2.823 -0.127,0.385 -0.294,0.699 -0.371,0.699 -0.328,0 -0.119,1.5 0.352,2.519 2.029,4.391 8.675,2.974 8.675,-1.85 V 34.87 L 81.864,34.1 c -1.355,-1.64 -2.736,-2.155 -4.797,-1.789 m -44.533,2.094 c 0.339,0.034 0.827,0.207 1.083,0.386 0.257,0.179 0.699,0.404 0.984,0.5 0.485,0.164 1.18,0.813 2.372,2.217 0.324,0.382 0.63,1.059 0.866,1.916 0.549,2.001 0.571,2.434 0.177,3.487 -0.192,0.514 -0.349,1.107 -0.349,1.317 0,1.181 -3.112,3.992 -4.639,4.19 -0.428,0.056 -1.139,0.18 -1.579,0.277 -0.55,0.121 -1.021,0.123 -1.5,0.007 -0.385,-0.093 -1.112,-0.263 -1.616,-0.376 -0.504,-0.114 -1.166,-0.402 -1.471,-0.641 -0.91,-0.714 -2.189,-2.084 -2.195,-2.352 -0.003,-0.137 -0.228,-0.625 -0.5,-1.083 -1.565,-2.638 0.042,-7.489 2.964,-8.952 0.497,-0.249 1.011,-0.542 1.143,-0.651 0.132,-0.11 0.705,-0.247 1.274,-0.306 0.967,-0.1 1.418,-0.09 2.986,0.064 m 206.792,0.31 c 0.443,0.229 1.038,0.469 1.323,0.531 1.485,0.326 5.255,3.786 5.984,5.491 0.232,0.542 0.015,1.263 -0.38,1.263 -0.104,0 -0.345,0.144 -0.533,0.32 -0.189,0.176 -0.635,0.421 -0.99,0.544 -0.356,0.124 -1.009,0.44 -1.451,0.704 -1.152,0.685 -2.585,0.72 -2.901,0.07 -0.236,-0.485 -1.808,-1.971 -2.085,-1.971 -0.094,0 -0.297,-0.146 -0.452,-0.325 -0.664,-0.766 -5.343,-0.845 -6.161,-0.104 -0.148,0.134 -0.569,0.379 -0.934,0.545 -0.686,0.31 -2.246,1.667 -2.246,1.954 0,0.089 -0.184,0.353 -0.408,0.587 -1.319,1.377 -1.391,7.566 -0.098,8.509 0.063,0.046 0.291,0.402 0.507,0.792 0.217,0.39 0.436,0.708 0.488,0.709 0.052,0 0.422,0.291 0.822,0.646 0.401,0.355 1.019,0.742 1.375,0.86 0.356,0.117 0.647,0.267 0.647,0.333 0,0.342 1.205,0.577 2.959,0.577 2.616,0 4.166,-0.816 5.597,-2.946 0.401,-0.598 1.058,-0.794 1.68,-0.501 0.191,0.09 0.61,0.262 0.931,0.382 0.321,0.121 0.838,0.391 1.148,0.601 0.311,0.209 0.686,0.381 0.834,0.381 0.82,0.002 1.96,1.212 1.787,1.898 -0.155,0.62 -2.493,3.419 -2.865,3.43 -0.099,0.003 -0.361,0.2 -0.583,0.438 -0.223,0.238 -0.696,0.582 -1.053,0.765 -0.356,0.183 -0.794,0.468 -0.971,0.634 -0.178,0.165 -0.637,0.348 -1.02,0.405 -0.383,0.058 -1.108,0.302 -1.611,0.544 -1.276,0.612 -6.624,0.673 -7.853,0.09 -0.401,-0.191 -1.067,-0.431 -1.48,-0.534 -1.015,-0.252 -1.666,-0.517 -1.666,-0.677 0,-0.073 -0.325,-0.256 -0.722,-0.408 -0.396,-0.151 -0.933,-0.458 -1.192,-0.68 -0.259,-0.223 -0.538,-0.405 -0.619,-0.405 -0.121,0 -0.618,-0.432 -1.678,-1.46 C 222.904,58.171 222,57.049 222,56.898 c 0,-0.102 -0.227,-0.471 -0.504,-0.819 -0.277,-0.349 -0.55,-0.828 -0.607,-1.065 -0.057,-0.237 -0.271,-0.768 -0.476,-1.181 -1.078,-2.173 -1.058,-9.543 0.029,-10.632 0.119,-0.119 0.292,-0.498 0.384,-0.842 0.093,-0.345 0.393,-0.922 0.667,-1.284 0.274,-0.362 0.5,-0.736 0.502,-0.83 0.006,-0.22 1.89,-2.143 2.665,-2.722 0.324,-0.242 0.735,-0.571 0.913,-0.731 0.178,-0.161 0.411,-0.292 0.519,-0.292 0.107,0 0.487,-0.2 0.843,-0.444 0.357,-0.244 1.079,-0.579 1.605,-0.745 0.526,-0.165 1.183,-0.418 1.459,-0.56 1.392,-0.72 7.96,-0.746 9.327,-0.036 m -74.482,-0.209 c 0.314,0.167 0.323,0.465 0.332,10.458 0.007,7.512 0.063,10.443 0.208,10.867 0.268,0.78 0.511,0.813 6.116,0.831 5.635,0.019 5.116,-0.267 5.192,2.856 0.086,3.569 0.649,3.334 -7.535,3.143 -3.524,-0.082 -7.363,-0.152 -8.532,-0.155 -3.156,-0.009 -2.792,1.84 -2.792,-14.152 0,-14.24 -0.028,-13.709 0.75,-13.9 0.665,-0.163 5.941,-0.12 6.261,0.052 m 32.804,0.994 c 0.311,0.596 0.673,1.496 0.805,2 0.131,0.504 0.386,1.17 0.566,1.48 0.181,0.309 0.433,1.01 0.56,1.558 0.128,0.547 0.347,1.122 0.488,1.277 0.141,0.156 0.379,0.767 0.53,1.359 0.151,0.592 0.453,1.383 0.672,1.757 0.219,0.375 0.398,0.863 0.398,1.084 0.001,0.221 0.225,0.852 0.5,1.402 0.274,0.55 0.499,1.103 0.499,1.229 0,0.126 0.263,0.81 0.584,1.521 0.321,0.71 0.583,1.423 0.583,1.583 0,0.161 0.214,0.714 0.475,1.229 0.261,0.516 0.529,1.238 0.596,1.604 0.066,0.367 0.293,0.967 0.503,1.334 0.209,0.366 0.477,1.079 0.594,1.583 0.116,0.504 0.35,1.114 0.519,1.355 0.169,0.24 0.419,0.868 0.556,1.394 0.137,0.527 0.331,1.056 0.432,1.177 0.25,0.301 -0.071,0.876 -0.554,0.994 -0.204,0.05 -1.905,0.07 -3.781,0.044 L 199.762,62.417 199.567,62 c -0.651,-1.389 -1.047,-2.296 -1.143,-2.621 -0.196,-0.657 -0.973,-0.742 -6.231,-0.683 l -4.89,0.054 -0.318,0.393 c -0.175,0.217 -0.318,0.549 -0.318,0.74 0,0.443 -0.618,1.756 -1.055,2.242 -0.329,0.366 -0.419,0.375 -3.804,0.375 h -3.467 l -0.275,-0.419 c -0.317,-0.484 -0.102,-1.627 0.458,-2.436 0.167,-0.24 0.416,-0.871 0.554,-1.4 0.138,-0.529 0.359,-1.128 0.491,-1.33 0.133,-0.203 0.369,-0.81 0.524,-1.35 0.156,-0.54 0.45,-1.319 0.654,-1.732 0.203,-0.412 0.456,-1.102 0.562,-1.532 0.105,-0.43 0.332,-1.03 0.504,-1.333 0.172,-0.303 0.403,-0.926 0.512,-1.385 0.11,-0.458 0.339,-1.058 0.508,-1.333 0.17,-0.275 0.401,-0.875 0.513,-1.333 0.113,-0.459 0.377,-1.171 0.586,-1.584 0.209,-0.412 0.432,-1.033 0.494,-1.38 0.062,-0.347 0.282,-0.879 0.487,-1.182 0.206,-0.303 0.468,-0.957 0.583,-1.453 0.114,-0.496 0.333,-1.126 0.487,-1.401 0.153,-0.275 0.377,-0.838 0.497,-1.25 0.12,-0.413 0.436,-1.2 0.702,-1.75 0.267,-0.55 0.485,-1.152 0.485,-1.338 0,-1.148 0.269,-1.208 5.333,-1.183 l 4.083,0.021 0.565,1.083 M 313.41,34.479 c 0.507,0.108 0.52,0.132 1.092,1.938 0.117,0.366 0.274,0.707 0.349,0.756 0.076,0.049 0.262,0.574 0.414,1.167 0.151,0.592 0.451,1.414 0.664,1.827 0.214,0.412 0.467,1.1 0.561,1.528 0.095,0.429 0.361,1.134 0.591,1.567 0.231,0.433 0.419,0.953 0.419,1.155 0,0.202 0.197,0.734 0.438,1.183 0.241,0.449 0.561,1.342 0.711,1.983 l 0.274,1.167 0.621,0.052 c 0.693,0.057 0.756,-0.028 1.136,-1.552 0.114,-0.458 0.336,-1.021 0.493,-1.25 0.157,-0.229 0.339,-0.679 0.405,-1 0.066,-0.321 0.329,-1.009 0.585,-1.529 0.255,-0.52 0.559,-1.345 0.674,-1.833 0.115,-0.488 0.339,-1.075 0.496,-1.305 0.158,-0.229 0.381,-0.829 0.496,-1.333 0.114,-0.504 0.353,-1.171 0.531,-1.482 0.178,-0.311 0.425,-0.948 0.549,-1.416 0.351,-1.319 0.416,-1.417 1.066,-1.598 0.815,-0.226 8.946,-0.225 9.369,0.002 0.414,0.222 0.506,27.155 0.095,27.697 -0.274,0.361 -5.297,0.694 -6.215,0.412 -0.774,-0.238 -0.754,-0.021 -0.782,-8.256 -0.02,-5.814 -0.073,-7.527 -0.245,-7.827 -0.366,-0.643 -0.737,-0.383 -1.023,0.719 -0.143,0.549 -0.422,1.302 -0.62,1.673 -0.198,0.371 -0.414,0.971 -0.481,1.334 -0.066,0.362 -0.335,1.063 -0.597,1.557 -0.262,0.494 -0.476,1.064 -0.476,1.267 0,0.203 -0.196,0.736 -0.436,1.185 -0.239,0.449 -0.539,1.212 -0.665,1.696 -0.127,0.483 -0.344,1.053 -0.484,1.266 -0.139,0.213 -0.369,0.829 -0.509,1.371 -0.141,0.541 -0.394,1.218 -0.563,1.504 -0.169,0.287 -0.358,0.752 -0.42,1.034 -0.239,1.087 -0.644,1.362 -2.011,1.362 -1.827,0 -2.259,-0.29 -2.484,-1.67 -0.052,-0.322 -0.253,-0.88 -0.446,-1.24 -0.192,-0.36 -0.457,-1.071 -0.588,-1.58 -0.13,-0.51 -0.384,-1.128 -0.562,-1.374 -0.179,-0.246 -0.405,-0.808 -0.503,-1.25 -0.097,-0.441 -0.35,-1.14 -0.561,-1.553 -0.211,-0.412 -0.473,-1.113 -0.582,-1.557 -0.109,-0.444 -0.311,-0.978 -0.448,-1.188 -0.138,-0.21 -0.387,-0.859 -0.554,-1.443 -0.167,-0.584 -0.462,-1.322 -0.656,-1.64 -0.193,-0.317 -0.401,-0.917 -0.461,-1.333 -0.134,-0.924 -0.501,-1.71 -0.625,-1.339 -0.438,1.312 -0.463,1.83 -0.428,9.089 0.031,6.601 0.002,7.633 -0.217,7.853 -0.453,0.452 -6.618,0.335 -7.009,-0.134 -0.481,-0.576 -0.366,-27.217 0.119,-27.571 0.34,-0.249 8.409,-0.326 9.503,-0.091 m -46.099,0.336 c 0.333,0.174 0.941,0.407 1.35,0.518 0.409,0.111 1.008,0.419 1.33,0.684 0.322,0.266 0.662,0.484 0.755,0.486 0.487,0.009 2.466,2.345 2.752,3.247 0.116,0.367 0.37,1.036 0.565,1.486 0.293,0.681 0.354,1.151 0.354,2.764 0,1.613 -0.061,2.083 -0.354,2.764 -0.195,0.45 -0.45,1.119 -0.566,1.486 -0.116,0.367 -0.345,0.817 -0.509,1 -0.988,1.107 -1.996,1.986 -2.618,2.283 -1.26,0.604 -1.534,1.464 -0.79,2.484 0.227,0.311 0.542,0.829 0.701,1.15 0.159,0.32 0.411,0.733 0.56,0.916 0.149,0.184 0.371,0.596 0.492,0.917 0.121,0.321 0.381,0.771 0.577,1 0.196,0.229 0.463,0.642 0.594,0.917 0.131,0.275 0.408,0.712 0.617,0.971 0.208,0.259 0.379,0.568 0.379,0.686 0,0.118 0.146,0.4 0.325,0.627 0.856,1.089 0.505,1.225 -3.815,1.477 l -3.407,0.198 -0.426,-0.513 c -0.83,-1 -1.126,-1.451 -1.23,-1.875 -0.058,-0.236 -0.279,-0.686 -0.491,-1 -0.212,-0.314 -0.561,-1.003 -0.774,-1.53 C 263.469,57.431 263.243,57 263.18,57 c -0.063,0 -0.246,-0.366 -0.407,-0.814 -0.161,-0.448 -0.476,-1.063 -0.7,-1.366 -0.223,-0.303 -0.406,-0.617 -0.406,-0.698 0,-0.502 -0.532,-0.653 -2.101,-0.596 -2.189,0.079 -2.066,-0.196 -2.066,4.635 0,5.114 0.318,4.672 -3.359,4.672 -2.604,0 -2.88,-0.028 -3.324,-0.344 l -0.484,-0.345 V 48.655 c 0,-13.266 0.006,-13.494 0.334,-13.822 0.504,-0.504 15.677,-0.521 16.644,-0.018 m 31.662,-0.023 c 0.327,0.631 0.348,5.501 0.024,5.794 -0.257,0.233 -1.078,0.27 -6.537,0.299 -7.434,0.038 -6.793,-0.171 -6.793,2.217 v 1.727 l 0.603,0.252 c 0.5,0.209 1.595,0.252 6.334,0.252 7.079,0 6.396,-0.345 6.396,3.23 0,3.357 0.722,3.012 -6.4,3.059 -7.571,0.05 -6.927,-0.159 -6.931,2.245 -0.004,2.92 -0.315,2.8 7.252,2.8 5.122,0 5.899,0.033 6.088,0.26 0.368,0.444 0.336,4.799 -0.04,5.418 l -0.297,0.488 h -9.755 -9.755 l -0.333,-0.541 c -0.431,-0.703 -0.448,-26.998 -0.017,-27.516 0.363,-0.437 19.934,-0.422 20.161,0.016 m 62.382,-0.016 c 0.343,0.414 0.428,5.353 0.099,5.792 -0.228,0.304 -0.504,0.317 -6.23,0.28 -6.949,-0.044 -6.797,-0.07 -6.951,1.211 -0.21,1.743 -0.138,2.425 0.303,2.865 l 0.409,0.409 h 6.002 c 5.601,0 6.012,0.02 6.161,0.299 0.253,0.472 0.287,5.499 0.04,5.747 -0.152,0.152 -1.738,0.215 -6.228,0.247 -4.681,0.033 -6.098,0.092 -6.358,0.264 -0.515,0.342 -0.515,3.53 0,4.221 l 0.351,0.472 6.113,0.018 c 5.791,0.017 6.125,0.034 6.351,0.333 0.407,0.538 0.344,4.659 -0.082,5.358 l -0.33,0.541 h -9.749 -9.748 l -0.26,-0.397 c -0.337,-0.514 -0.401,-27.3 -0.067,-27.704 0.319,-0.384 19.854,-0.342 20.174,0.044 m -103.672,6.749 c -0.269,0.771 -0.23,4.982 0.049,5.35 0.261,0.344 6.349,0.443 7.207,0.116 2.521,-0.958 2.677,-4.088 0.273,-5.469 L 264.303,41 h -3.218 -3.219 l -0.183,0.525 m -65.295,1.168 c -0.098,0.123 -0.273,0.524 -0.389,0.89 -0.116,0.367 -0.34,0.929 -0.499,1.25 -0.158,0.321 -0.379,0.996 -0.49,1.5 -0.112,0.504 -0.384,1.265 -0.606,1.69 -0.222,0.424 -0.404,0.875 -0.404,1.002 0,0.126 -0.187,0.82 -0.417,1.542 -0.229,0.722 -0.416,1.365 -0.416,1.43 0,0.457 4.664,0.71 6.041,0.328 0.724,-0.201 0.738,-0.272 0.292,-1.492 -0.183,-0.501 -0.335,-1.063 -0.337,-1.247 -0.002,-0.185 -0.195,-0.786 -0.429,-1.336 -0.233,-0.55 -0.538,-1.521 -0.676,-2.158 -0.139,-0.637 -0.36,-1.312 -0.493,-1.5 -0.132,-0.188 -0.312,-0.607 -0.399,-0.93 -0.231,-0.856 -0.551,-1.254 -0.778,-0.969 M 69.229,47.331 c -0.366,0.148 -0.96,1.645 -1.487,3.752 -0.138,0.55 -0.389,1.19 -0.558,1.422 -0.168,0.232 -0.461,0.724 -0.649,1.092 -0.454,0.891 -2.513,2.92 -3.452,3.403 -0.412,0.212 -0.75,0.447 -0.75,0.522 0,0.074 -0.431,0.258 -0.958,0.407 -0.527,0.15 -1.12,0.374 -1.317,0.498 -1.014,0.639 -5.511,0.606 -6.509,-0.048 -0.206,-0.135 -0.69,-0.317 -1.074,-0.403 -0.954,-0.215 -2.504,-1.202 -3.613,-2.302 -1.41,-1.399 -2.135,-1.835 -2.754,-1.657 -1.111,0.318 -1.618,1.758 -1.028,2.916 0.385,0.754 2.733,3.063 3.124,3.072 0.117,0.002 0.507,0.227 0.867,0.5 0.36,0.272 0.752,0.495 0.87,0.495 0.292,0 1.392,0.534 1.392,0.676 0,1.059 9.358,1.066 10.834,0.008 0.229,-0.165 0.716,-0.402 1.083,-0.529 0.367,-0.126 0.882,-0.403 1.145,-0.615 0.263,-0.212 0.73,-0.491 1.037,-0.619 0.579,-0.242 0.754,-0.381 2.155,-1.71 1.19,-1.13 2.983,-3.671 3.19,-4.522 0.059,-0.241 0.294,-0.852 0.523,-1.356 1.487,-3.272 0.364,-5.985 -2.071,-5.002 m 40.757,8.044 c -1.025,0.785 -1.421,1.628 -1.183,2.516 0.833,3.108 1.045,3.82 1.259,4.234 0.134,0.259 0.34,0.938 0.458,1.508 0.32,1.548 1.313,2.535 2.676,2.659 l 0.972,0.088 0.851,-0.851 0.851,-0.852 -0.068,-1.213 c -0.046,-0.8 -0.194,-1.466 -0.435,-1.953 -0.201,-0.406 -0.478,-1.28 -0.615,-1.942 -0.846,-4.095 -2.731,-5.754 -4.766,-4.194 m 138.181,21.298 c 0.32,0.086 1.133,0.265 1.806,0.396 0.725,0.142 1.476,0.414 1.842,0.669 0.341,0.236 0.691,0.429 0.777,0.43 0.087,10e-4 0.487,0.264 0.89,0.584 0.402,0.32 0.796,0.581 0.875,0.581 0.491,0 3.207,3.295 3.114,3.777 -0.082,0.425 -1.502,1.444 -2.369,1.7 -0.409,0.121 -0.865,0.354 -1.014,0.519 -0.244,0.269 -0.847,0.482 -2.103,0.741 -0.457,0.095 -0.788,-0.096 -1.17,-0.674 -0.427,-0.646 -1.662,-1.554 -2.369,-1.74 -0.383,-0.101 -0.881,-0.302 -1.107,-0.447 -0.766,-0.492 -2.636,-0.481 -3.698,0.021 -0.508,0.24 -1.096,0.437 -1.308,0.437 -1.028,0 -3.777,2.752 -4.174,4.179 -0.113,0.406 -0.345,1.042 -0.515,1.415 -0.382,0.834 -0.403,2.541 -0.043,3.489 0.14,0.367 0.351,1.008 0.469,1.426 0.503,1.769 2.61,3.821 4.738,4.61 1.829,0.68 2.223,0.756 3.442,0.669 1.043,-0.075 1.767,-0.29 3.534,-1.047 1.005,-0.431 1.579,-2.064 0.963,-2.745 -0.275,-0.304 -0.521,-0.33 -3.1,-0.33 -2.6,0 -2.814,-0.023 -2.974,-0.322 -0.282,-0.525 -0.226,-5.677 0.065,-5.998 0.329,-0.364 12.872,-0.24 13.32,0.132 0.324,0.27 0.416,9.424 0.106,10.541 -0.179,0.645 -2.238,2.662 -3.437,3.366 -0.185,0.109 -0.594,0.366 -0.907,0.572 -0.314,0.206 -0.714,0.375 -0.89,0.375 -0.176,0.001 -0.798,0.234 -1.382,0.518 -1.289,0.628 -4.155,1.069 -5.965,0.917 -4.497,-0.377 -4.742,-0.416 -5.793,-0.917 -0.572,-0.273 -1.24,-0.539 -1.485,-0.59 -0.246,-0.052 -0.669,-0.281 -0.941,-0.51 -0.273,-0.229 -0.597,-0.417 -0.721,-0.417 -0.225,0 -0.417,-0.168 -2.119,-1.862 -1.242,-1.235 -1.691,-1.73 -1.691,-1.864 0,-0.064 -0.26,-0.493 -0.577,-0.955 -0.318,-0.462 -0.627,-1.117 -0.686,-1.455 -0.059,-0.338 -0.241,-0.85 -0.406,-1.138 -0.826,-1.449 -0.951,-7.488 -0.189,-9.143 0.211,-0.458 0.49,-1.142 0.62,-1.52 0.707,-2.052 2.84,-4.525 5.131,-5.95 0.269,-0.167 0.594,-0.409 0.722,-0.537 0.129,-0.129 0.512,-0.309 0.851,-0.402 0.34,-0.092 0.911,-0.326 1.27,-0.519 0.378,-0.204 1.503,-0.492 2.667,-0.683 3.737,-0.613 4.599,-0.657 5.931,-0.299 m 142.649,0.305 c 0.861,0.18 1.769,0.479 2.019,0.663 0.249,0.185 0.707,0.455 1.018,0.601 1.344,0.632 4.147,3.117 4.147,3.678 0,0.104 0.188,0.365 0.417,0.58 0.229,0.215 0.416,0.485 0.416,0.599 0,0.257 -1.819,1.568 -2.175,1.568 -0.143,0 -0.608,0.22 -1.033,0.49 -0.425,0.27 -1.079,0.582 -1.451,0.694 -0.373,0.112 -0.761,0.304 -0.864,0.427 -0.148,0.179 -0.355,0.048 -1.039,-0.66 -1.299,-1.344 -1.832,-1.721 -2.887,-2.045 -0.532,-0.164 -1.115,-0.397 -1.296,-0.519 -0.461,-0.31 -2.564,-0.294 -2.913,0.022 -0.147,0.133 -0.683,0.35 -1.189,0.482 -1.679,0.437 -4.091,2.582 -4.435,3.942 -0.058,0.229 -0.262,0.629 -0.453,0.889 -0.526,0.714 -0.525,4.844 10e-4,5.555 0.192,0.26 0.448,0.746 0.569,1.079 0.189,0.525 1.624,2.197 2.35,2.74 0.697,0.522 1.177,0.763 1.995,1.005 0.497,0.146 1.009,0.352 1.137,0.457 0.448,0.367 3.328,0.242 4.223,-0.183 0.435,-0.207 0.9,-0.375 1.034,-0.375 1.204,0 2.479,-2.334 1.651,-3.022 -0.198,-0.164 -1.037,-0.252 -2.992,-0.312 -1.598,-0.049 -2.791,-0.157 -2.895,-0.262 -0.302,-0.303 -0.365,-5.409 -0.072,-5.863 l 0.242,-0.375 h 6.126 c 5.274,0 6.177,0.036 6.496,0.26 0.369,0.259 0.37,0.273 0.37,5.508 0,5.847 0.022,5.719 -1.159,6.732 -0.373,0.321 -0.869,0.752 -1.1,0.958 -0.232,0.206 -0.662,0.498 -0.956,0.648 -0.294,0.151 -0.709,0.41 -0.921,0.576 -0.213,0.166 -0.805,0.423 -1.315,0.571 -0.511,0.149 -1.034,0.376 -1.163,0.504 -1.108,1.109 -9.211,1.101 -11.423,-0.01 -0.44,-0.221 -1.087,-0.479 -1.438,-0.573 -0.351,-0.095 -0.856,-0.36 -1.123,-0.589 -0.267,-0.23 -0.587,-0.418 -0.713,-0.418 -0.33,0 -2.326,-1.816 -3.105,-2.825 -0.367,-0.475 -0.863,-1.102 -1.101,-1.394 -0.239,-0.292 -0.529,-0.831 -0.644,-1.198 -0.115,-0.366 -0.337,-0.891 -0.493,-1.166 -1.178,-2.068 -1.202,-9.369 -0.036,-11.065 0.164,-0.24 0.399,-0.698 0.522,-1.019 0.122,-0.321 0.351,-0.733 0.509,-0.916 0.158,-0.184 0.405,-0.559 0.55,-0.834 0.244,-0.464 1.229,-1.545 2.388,-2.619 0.269,-0.249 0.761,-0.567 1.093,-0.706 0.333,-0.139 0.658,-0.338 0.722,-0.441 0.064,-0.103 0.463,-0.339 0.886,-0.523 0.424,-0.184 1.099,-0.482 1.501,-0.662 0.715,-0.32 3.695,-0.882 5.853,-1.104 1.163,-0.12 1.715,-0.06 4.149,0.45 m -67.186,0.115 0.37,0.259 v 13.632 c 0,13.172 -0.011,13.641 -0.316,13.917 -0.463,0.419 -6.473,0.334 -6.905,-0.097 -0.253,-0.254 -0.279,-1.001 -0.279,-8.024 0,-7.305 -0.018,-7.765 -0.311,-8.127 -0.379,-0.469 -0.559,-0.235 -0.858,1.118 -0.098,0.447 -0.351,1.15 -0.561,1.562 -0.21,0.413 -0.482,1.125 -0.603,1.584 -0.122,0.458 -0.344,1.021 -0.495,1.25 -0.151,0.229 -0.374,0.829 -0.496,1.333 -0.122,0.504 -0.351,1.104 -0.509,1.333 -0.158,0.23 -0.383,0.829 -0.5,1.334 -0.117,0.504 -0.384,1.216 -0.594,1.583 -0.21,0.367 -0.435,0.967 -0.501,1.333 -0.066,0.367 -0.334,1.071 -0.596,1.565 -0.262,0.495 -0.476,1.059 -0.476,1.255 0,0.735 -0.432,1.063 -1.559,1.184 -1.665,0.178 -2.421,-0.314 -2.786,-1.813 -0.108,-0.446 -0.412,-1.233 -0.674,-1.75 -0.262,-0.518 -0.479,-1.128 -0.482,-1.357 -0.002,-0.229 -0.227,-0.792 -0.499,-1.25 -0.272,-0.459 -0.496,-1.021 -0.498,-1.25 -0.002,-0.229 -0.265,-0.938 -0.586,-1.574 -0.32,-0.637 -0.583,-1.286 -0.583,-1.443 0,-0.158 -0.225,-0.762 -0.5,-1.343 -0.274,-0.582 -0.499,-1.193 -0.5,-1.359 0,-0.166 -0.218,-0.766 -0.484,-1.334 -0.267,-0.567 -0.576,-1.331 -0.687,-1.697 -0.263,-0.868 -0.392,-0.992 -0.677,-0.649 -0.193,0.233 -0.244,1.714 -0.288,8.33 -0.047,7.1 -0.084,8.073 -0.317,8.266 -0.472,0.391 -6.248,0.307 -6.696,-0.098 l -0.351,-0.318 V 90.984 77.519 l 0.371,-0.26 c 0.314,-0.22 1.087,-0.259 5.079,-0.259 5.299,0 5.012,-0.072 5.305,1.327 0.066,0.317 0.261,0.767 0.432,1 0.172,0.233 0.427,0.873 0.567,1.423 0.141,0.55 0.395,1.191 0.564,1.424 0.17,0.233 0.361,0.735 0.425,1.115 0.064,0.38 0.267,0.977 0.451,1.326 0.184,0.349 0.476,1.113 0.648,1.697 0.172,0.584 0.429,1.238 0.57,1.454 0.141,0.215 0.364,0.801 0.494,1.301 0.293,1.127 0.436,1.393 1.066,1.993 l 0.501,0.476 0.241,-0.476 c 0.133,-0.262 0.291,-0.75 0.352,-1.085 0.06,-0.334 0.255,-0.793 0.433,-1.019 0.178,-0.227 0.41,-0.778 0.515,-1.226 0.105,-0.447 0.407,-1.263 0.672,-1.813 0.265,-0.55 0.482,-1.188 0.484,-1.417 0.001,-0.229 0.225,-0.792 0.497,-1.25 0.272,-0.458 0.496,-1.009 0.497,-1.223 0.002,-0.214 0.225,-0.851 0.495,-1.416 0.271,-0.565 0.607,-1.446 0.747,-1.957 0.435,-1.594 0.319,-1.557 5.236,-1.661 2.351,-0.049 4.39,-0.106 4.53,-0.125 0.14,-0.019 0.421,0.082 0.625,0.225 M 172.448,77.16 c 1.411,0.116 2.091,0.258 2.796,0.58 0.513,0.235 1.064,0.427 1.226,0.427 0.161,0 0.59,0.158 0.953,0.352 0.363,0.194 0.96,0.505 1.327,0.689 1.167,0.589 3.23,2.447 3.677,3.313 0.128,0.246 0.347,0.562 0.487,0.703 0.141,0.14 0.408,0.579 0.595,0.974 0.187,0.395 0.482,0.981 0.655,1.302 0.174,0.321 0.363,0.921 0.421,1.333 0.058,0.413 0.264,1.487 0.457,2.388 l 0.352,1.638 -0.358,1.945 c -0.197,1.07 -0.405,2.263 -0.461,2.65 -0.057,0.387 -0.32,1.025 -0.586,1.417 -0.266,0.392 -0.484,0.858 -0.486,1.035 -0.005,0.539 -3.07,4.094 -3.529,4.094 -0.066,0 -0.366,0.225 -0.668,0.5 -0.301,0.275 -0.666,0.5 -0.811,0.5 -0.144,0 -0.618,0.225 -1.051,0.5 -0.434,0.275 -0.925,0.5 -1.092,0.5 -0.317,0 -1.201,0.255 -1.769,0.511 -1.007,0.453 -2.177,0.535 -8.687,0.609 -6.062,0.068 -6.913,0.047 -7.37,-0.19 l -0.516,-0.267 -0.047,-13.456 c -0.049,-14.106 -0.066,-13.785 0.766,-14.026 0.692,-0.201 11.351,-0.217 13.719,-0.021 m 23.711,0.159 c 0.108,0.202 0.186,3.447 0.214,8.875 l 0.044,8.556 0.657,1.167 c 0.361,0.641 0.77,1.235 0.909,1.319 0.139,0.084 0.444,0.359 0.677,0.61 1.629,1.76 5.823,1.655 7.627,-0.19 2.056,-2.103 1.927,-1.351 1.992,-11.545 0.03,-4.798 0.121,-8.593 0.209,-8.75 0.285,-0.511 6.72,-0.513 7.077,-0.003 0.66,0.943 0.293,19.186 -0.413,20.541 -0.187,0.359 -0.453,0.984 -0.59,1.39 -0.385,1.131 -2.067,3.233 -3.058,3.818 -0.277,0.164 -0.504,0.352 -0.504,0.417 0,0.065 -0.431,0.278 -0.958,0.473 -0.527,0.196 -1.259,0.499 -1.626,0.674 -2.336,1.117 -10.016,1.009 -12.293,-0.173 -0.529,-0.274 -1.057,-0.498 -1.173,-0.498 -0.117,0 -0.472,-0.222 -0.79,-0.493 -0.317,-0.272 -0.654,-0.497 -0.749,-0.5 -0.314,-0.013 -2.577,-2.426 -2.577,-2.748 -0.001,-0.087 -0.18,-0.349 -0.399,-0.583 -0.232,-0.249 -0.513,-0.895 -0.675,-1.555 -0.153,-0.621 -0.39,-1.446 -0.528,-1.833 -0.335,-0.941 -0.39,-18.646 -0.06,-19.045 0.35,-0.422 6.758,-0.353 6.987,0.076 m 83.219,0.145 c 0.254,0.238 0.482,0.734 0.612,1.333 0.114,0.524 0.351,1.201 0.526,1.504 0.174,0.303 0.404,0.903 0.51,1.334 0.106,0.43 0.406,1.186 0.667,1.68 0.26,0.494 0.474,1.088 0.474,1.319 0,0.231 0.179,0.727 0.397,1.101 0.219,0.375 0.522,1.166 0.673,1.759 0.151,0.592 0.328,1.117 0.394,1.166 0.245,0.185 0.536,0.849 0.536,1.226 0,0.215 0.189,0.76 0.42,1.211 0.231,0.451 0.54,1.232 0.688,1.736 0.147,0.504 0.446,1.271 0.663,1.703 0.217,0.432 0.395,0.927 0.395,1.099 0,0.171 0.216,0.755 0.479,1.297 0.263,0.541 0.574,1.36 0.691,1.818 0.116,0.458 0.348,1.063 0.515,1.343 0.166,0.28 0.411,0.918 0.544,1.417 0.305,1.152 0.442,1.49 0.601,1.49 0.07,0 0.222,0.339 0.338,0.754 0.383,1.368 0.257,1.413 -3.902,1.41 -4.435,-0.003 -4.357,0.032 -4.83,-2.171 -0.05,-0.234 -0.366,-0.777 -0.703,-1.209 L 279.455,101 h -4.856 -4.856 l -0.618,0.509 c -0.416,0.343 -0.677,0.737 -0.8,1.208 -0.101,0.385 -0.253,0.973 -0.339,1.307 -0.255,0.994 -0.867,1.143 -4.714,1.143 -4.052,0 -4.298,-0.15 -3.247,-1.982 0.179,-0.311 0.432,-0.979 0.564,-1.484 0.132,-0.505 0.346,-1.081 0.476,-1.279 0.13,-0.199 0.401,-0.913 0.602,-1.589 0.201,-0.675 0.472,-1.39 0.602,-1.588 0.13,-0.198 0.349,-0.794 0.487,-1.323 0.138,-0.53 0.384,-1.16 0.548,-1.401 0.164,-0.241 0.399,-0.849 0.522,-1.352 0.124,-0.502 0.394,-1.232 0.601,-1.621 0.206,-0.388 0.43,-1.026 0.496,-1.416 0.066,-0.391 0.289,-0.936 0.497,-1.213 0.208,-0.276 0.43,-0.823 0.494,-1.215 0.064,-0.391 0.285,-1.029 0.492,-1.417 0.206,-0.388 0.472,-1.117 0.591,-1.621 0.119,-0.504 0.354,-1.113 0.523,-1.354 0.169,-0.241 0.413,-0.841 0.543,-1.333 0.13,-0.493 0.431,-1.282 0.67,-1.753 0.238,-0.472 0.434,-1.006 0.434,-1.188 0,-0.606 0.494,-1.524 0.958,-1.78 0.846,-0.467 8.724,-0.292 9.253,0.206 m 56.747,-0.166 0.375,0.214 v 13.573 13.573 l -0.492,0.254 c -0.777,0.402 -6.3,0.371 -6.609,-0.037 -0.374,-0.493 -0.333,-27.251 0.042,-27.626 0.354,-0.353 6.053,-0.312 6.684,0.049 m 13.265,0.221 c 0.723,0.876 0.886,1.087 1.451,1.884 0.317,0.447 0.78,1.083 1.03,1.413 0.25,0.33 0.655,0.901 0.9,1.267 0.245,0.367 0.495,0.704 0.557,0.75 0.061,0.046 0.351,0.421 0.645,0.834 0.293,0.412 0.794,1.087 1.113,1.5 0.63,0.815 1.123,1.494 1.958,2.69 0.297,0.426 0.88,1.213 1.297,1.75 0.417,0.537 0.902,1.22 1.078,1.518 0.918,1.557 1.094,0.398 1.075,-7.079 -0.014,-5.606 0.017,-6.479 0.243,-6.743 0.323,-0.377 6.53,-0.47 6.896,-0.103 0.356,0.356 0.282,27.267 -0.075,27.662 -0.732,0.808 -7.225,0.354 -7.225,-0.505 0,-0.076 -0.159,-0.282 -0.355,-0.456 -0.195,-0.175 -0.535,-0.58 -0.754,-0.901 -0.956,-1.394 -1.228,-1.774 -1.549,-2.167 -1.079,-1.317 -1.316,-1.637 -1.606,-2.166 -0.175,-0.321 -0.413,-0.644 -0.529,-0.718 -0.115,-0.073 -0.36,-0.43 -0.545,-0.791 -0.184,-0.362 -0.402,-0.658 -0.484,-0.658 -0.082,0 -0.38,-0.356 -0.662,-0.792 -0.283,-0.435 -0.776,-1.129 -1.097,-1.541 -0.321,-0.413 -0.761,-1.014 -0.979,-1.336 -0.217,-0.322 -0.505,-0.678 -0.641,-0.791 -0.136,-0.113 -0.383,-0.505 -0.548,-0.872 -0.166,-0.368 -0.364,-0.668 -0.441,-0.668 -0.077,0 -0.358,-0.228 -0.623,-0.506 l -0.483,-0.505 -0.185,0.53 c -0.125,0.357 -0.185,2.862 -0.185,7.639 0,5.307 -0.051,7.159 -0.2,7.309 -0.346,0.346 -5.876,0.272 -6.483,-0.086 L 341.5,104.595 V 91.068 77.542 l 0.542,-0.276 c 0.458,-0.232 1.036,-0.268 3.764,-0.229 l 3.223,0.046 0.361,0.436 m -183.309,5.999 c -0.339,0.056 -0.682,0.206 -0.762,0.334 -0.288,0.454 -0.187,14.024 0.107,14.444 0.293,0.419 4.715,0.557 6.57,0.205 1.767,-0.335 4.624,-2.637 4.948,-3.987 0.057,-0.237 0.262,-0.768 0.455,-1.181 0.481,-1.029 0.518,-4.348 0.055,-5 -0.162,-0.229 -0.37,-0.69 -0.46,-1.024 -0.418,-1.545 -2.971,-3.433 -4.941,-3.654 -1.671,-0.188 -5.174,-0.268 -5.972,-0.137 m 107.788,1.761 c -0.086,0.167 -0.207,0.642 -0.268,1.054 -0.061,0.413 -0.288,1.125 -0.505,1.584 -0.216,0.458 -0.487,1.245 -0.601,1.75 -0.114,0.504 -0.372,1.254 -0.573,1.666 -1.391,2.853 -1.054,3.334 2.336,3.334 3.384,0 3.797,-0.245 3.015,-1.788 -0.225,-0.445 -0.488,-1.233 -0.584,-1.752 -0.096,-0.518 -0.365,-1.319 -0.598,-1.779 -0.234,-0.46 -0.424,-0.976 -0.424,-1.146 0,-1.226 -1.455,-3.591 -1.798,-2.923 M 116.361,98.303 c 1.565,1.49 0.67,4.251 -1.455,4.49 -1.215,0.137 -2.507,-0.932 -2.593,-2.147 -0.085,-1.204 0.012,-1.471 0.844,-2.335 1.089,-1.13 2.024,-1.132 3.204,-0.008"
     id="path0" />
  <path
     style="fill:#39b54a;fill-rule:evenodd;stroke:none"
     inkscape:connector-curvature="0"
     d="m 68,0.337 c 0,0.209 -0.173,0.41 -0.458,0.531 -0.252,0.107 -0.728,0.461 -1.057,0.788 -0.33,0.327 -0.892,0.845 -1.25,1.152 -0.359,0.307 -0.884,0.757 -1.168,1 -0.284,0.243 -0.793,0.686 -1.131,0.984 -0.338,0.298 -0.677,0.541 -0.754,0.541 -0.077,0 -0.427,0.263 -0.777,0.584 -0.35,0.32 -0.73,0.583 -0.845,0.583 -0.114,0 -0.312,0.149 -0.439,0.33 -0.127,0.182 -0.494,0.44 -0.814,0.574 -0.321,0.134 -0.675,0.354 -0.787,0.489 -0.112,0.135 -0.556,0.409 -0.987,0.609 -0.431,0.2 -0.933,0.495 -1.116,0.654 -0.184,0.16 -0.596,0.389 -0.917,0.511 -0.321,0.121 -0.733,0.344 -0.917,0.496 -0.183,0.151 -0.67,0.416 -1.083,0.589 -0.413,0.172 -0.937,0.435 -1.167,0.583 -0.229,0.148 -0.754,0.372 -1.166,0.498 -0.413,0.126 -1.088,0.398 -1.5,0.604 -0.413,0.206 -1.125,0.426 -1.584,0.49 -0.458,0.063 -1.128,0.256 -1.489,0.427 -0.36,0.172 -1.298,0.394 -2.083,0.494 -0.785,0.101 -2.215,0.323 -3.178,0.495 -4.165,0.743 -11.025,0.732 -14.893,-0.022 -2.488,-0.486 -3.908,-0.437 -5.077,0.174 -0.52,0.273 -1.147,0.535 -1.393,0.584 -0.246,0.048 -0.56,0.201 -0.698,0.339 -0.138,0.139 -0.601,0.401 -1.028,0.585 -0.849,0.364 -1.165,0.586 -2.957,2.08 -1.337,1.115 -3.62,3.392 -3.62,3.61 0,0.077 -0.148,0.288 -0.328,0.468 -0.18,0.18 -0.514,0.611 -0.741,0.958 -0.227,0.347 -0.793,1.176 -1.256,1.842 -0.463,0.666 -0.842,1.311 -0.842,1.433 0,0.121 -0.148,0.355 -0.33,0.52 -0.181,0.164 -0.484,0.711 -0.673,1.216 -0.189,0.504 -0.49,1.104 -0.67,1.333 -0.18,0.228 -0.327,0.543 -0.327,0.7 0,0.156 -0.215,0.727 -0.478,1.269 -0.264,0.541 -0.576,1.36 -0.694,1.818 -0.119,0.458 -0.346,1.022 -0.506,1.253 -0.16,0.231 -0.383,0.906 -0.497,1.5 -0.114,0.594 -0.338,1.343 -0.497,1.664 -0.16,0.32 -0.416,1.22 -0.569,2 -0.154,0.779 -0.422,1.866 -0.596,2.416 -0.175,0.55 -0.437,1.882 -0.583,2.96 -0.146,1.078 -0.367,2.353 -0.491,2.833 -1.188,4.605 -1.191,25.651 -0.005,30.096 0.131,0.489 0.356,1.839 0.501,3 0.146,1.161 0.373,2.394 0.507,2.74 0.133,0.346 0.395,1.359 0.583,2.25 0.188,0.892 0.48,1.996 0.649,2.455 0.169,0.458 0.397,1.283 0.507,1.833 0.11,0.55 0.332,1.23 0.494,1.51 0.161,0.281 0.39,0.918 0.507,1.417 0.118,0.498 0.349,1.099 0.514,1.334 0.165,0.236 0.398,0.744 0.519,1.131 0.12,0.386 0.393,0.906 0.606,1.154 0.212,0.248 0.426,0.647 0.474,0.887 0.048,0.239 0.305,0.69 0.571,1.001 0.266,0.311 0.483,0.646 0.484,0.744 0,0.098 0.262,0.485 0.583,0.86 0.321,0.375 0.584,0.732 0.584,0.794 0,0.179 1.154,1.518 2.42,2.809 1.281,1.305 2.414,2.07 3.577,2.417 0.414,0.123 0.828,0.284 0.919,0.357 0.373,0.296 2.239,0.534 3.901,0.496 2.913,-0.066 2.87,-0.087 3.122,1.553 0.059,0.386 0.237,1.003 0.394,1.369 0.58,1.352 0.667,1.607 0.669,1.967 0.003,0.375 0.317,1.378 0.543,1.729 0.069,0.108 0.269,0.771 0.445,1.474 0.57,2.279 2.046,3.667 3.379,3.177 2.224,-0.816 2.704,-2 1.702,-4.19 -0.235,-0.515 -0.502,-1.398 -0.593,-1.963 -0.091,-0.565 -0.34,-1.44 -0.554,-1.944 -0.215,-0.504 -0.481,-1.366 -0.593,-1.916 -0.112,-0.55 -0.337,-1.263 -0.498,-1.584 -0.162,-0.32 -0.387,-1.033 -0.499,-1.583 -0.112,-0.55 -0.373,-1.413 -0.579,-1.917 -0.207,-0.504 -0.468,-1.402 -0.581,-1.996 -0.113,-0.593 -0.337,-1.343 -0.498,-1.666 C 26.182,99.348 25.954,98.596 25.835,98 25.716,97.404 25.43,96.467 25.199,95.917 c -1.277,-3.039 0.147,-6.492 2.865,-6.951 3.298,-0.557 5.411,1.122 6.219,4.943 0.135,0.637 0.394,1.451 0.576,1.808 0.182,0.358 0.406,1.111 0.496,1.675 0.091,0.563 0.342,1.437 0.559,1.941 0.217,0.504 0.485,1.442 0.597,2.084 0.111,0.641 0.329,1.354 0.485,1.583 0.155,0.229 0.378,0.979 0.494,1.667 0.117,0.687 0.348,1.475 0.514,1.75 0.166,0.275 0.423,1.089 0.571,1.81 0.148,0.72 0.384,1.533 0.526,1.807 0.141,0.273 0.365,1.014 0.496,1.647 0.132,0.632 0.386,1.52 0.564,1.972 0.179,0.452 0.478,1.439 0.666,2.193 0.187,0.754 0.413,1.458 0.502,1.565 0.088,0.107 0.268,0.656 0.4,1.222 0.816,3.496 4.874,4.239 7.111,1.302 0.691,-0.906 0.722,-3.067 0.068,-4.622 -0.234,-0.555 -0.503,-1.434 -0.599,-1.953 -0.096,-0.519 -0.345,-1.356 -0.554,-1.86 -0.209,-0.504 -0.434,-1.292 -0.5,-1.75 -0.066,-0.458 -0.307,-1.23 -0.536,-1.715 -0.229,-0.485 -0.473,-1.273 -0.543,-1.75 -0.07,-0.478 -0.288,-1.264 -0.485,-1.749 -0.196,-0.484 -0.476,-1.459 -0.621,-2.166 -0.146,-0.708 -0.379,-1.414 -0.518,-1.569 -0.14,-0.155 -0.359,-0.892 -0.489,-1.637 -0.129,-0.744 -0.376,-1.632 -0.55,-1.971 -0.173,-0.34 -0.406,-1.104 -0.518,-1.697 -0.111,-0.594 -0.34,-1.322 -0.508,-1.618 -0.168,-0.296 -0.419,-1.087 -0.557,-1.756 -0.138,-0.67 -0.442,-1.723 -0.674,-2.34 -0.233,-0.618 -0.423,-1.327 -0.424,-1.577 -10e-4,-0.25 -0.186,-0.85 -0.411,-1.334 -0.225,-0.483 -0.527,-1.449 -0.671,-2.147 -0.144,-0.698 -0.415,-1.603 -0.601,-2.012 -1.361,-2.989 -0.545,-5.547 1.768,-5.542 1.714,0.003 2.575,0.886 2.993,3.071 0.129,0.677 0.38,1.518 0.556,1.869 0.177,0.352 0.415,1.165 0.53,1.807 0.114,0.641 0.346,1.409 0.515,1.705 0.169,0.296 0.427,1.121 0.573,1.833 0.146,0.712 0.4,1.558 0.565,1.878 0.165,0.321 0.397,0.99 0.515,1.486 0.331,1.386 1.359,2.348 2.509,2.348 2.198,0 3.391,-2.094 2.381,-4.178 C 51.857,88.583 51.609,87.763 51.502,87.167 51.396,86.571 51.176,85.854 51.013,85.575 50.85,85.295 50.62,84.545 50.502,83.908 50.384,83.271 50.151,82.45 49.985,82.083 49.634,81.309 49,78.812 49,78.206 c 0,-0.446 0.939,-1.428 3.083,-3.222 1.799,-1.505 2.123,-1.748 2.75,-2.063 0.321,-0.162 0.734,-0.425 0.917,-0.587 0.183,-0.161 0.629,-0.388 0.991,-0.504 0.361,-0.116 0.808,-0.352 0.994,-0.524 0.185,-0.173 0.639,-0.402 1.009,-0.51 0.37,-0.107 0.935,-0.363 1.256,-0.568 0.321,-0.205 0.883,-0.425 1.25,-0.489 0.367,-0.065 0.954,-0.262 1.305,-0.439 0.352,-0.176 1.289,-0.463 2.084,-0.636 0.794,-0.174 1.782,-0.441 2.194,-0.595 1.642,-0.61 9.154,-0.515 11.834,0.151 0.595,0.148 1.72,0.381 2.5,0.519 0.779,0.137 1.716,0.392 2.083,0.566 0.367,0.174 1.022,0.362 1.457,0.419 0.435,0.056 1.148,0.281 1.584,0.5 0.436,0.218 1.17,0.486 1.632,0.595 0.611,0.143 0.955,0.343 1.261,0.731 0.625,0.793 0.653,0.861 0.833,1.976 0.091,0.566 0.353,1.424 0.581,1.907 0.229,0.483 0.483,1.289 0.564,1.791 0.082,0.501 0.3,1.244 0.486,1.651 0.185,0.407 0.447,1.27 0.582,1.917 0.135,0.648 0.361,1.401 0.503,1.674 0.141,0.274 0.377,1.083 0.525,1.799 0.148,0.716 0.413,1.584 0.589,1.928 0.176,0.345 0.32,0.706 0.32,0.802 0,2 3.427,3.644 5.223,2.505 0.433,-0.275 0.859,-0.5 0.945,-0.5 0.087,0 0.282,-0.206 0.435,-0.458 0.153,-0.252 0.436,-0.684 0.629,-0.959 0.495,-0.704 0.493,-2.712 -0.003,-3.666 -0.191,-0.367 -0.439,-1.155 -0.551,-1.75 -0.112,-0.596 -0.335,-1.309 -0.495,-1.584 -0.16,-0.276 -0.386,-0.987 -0.503,-1.58 -0.116,-0.593 -0.349,-1.346 -0.516,-1.673 -0.166,-0.328 -0.411,-1.117 -0.543,-1.754 -0.133,-0.638 -0.406,-1.523 -0.609,-1.967 -0.203,-0.444 -0.432,-1.194 -0.51,-1.666 -0.168,-1.014 -0.33,-1.483 -0.568,-1.642 -0.719,-0.479 0.272,-3.109 1.365,-3.621 1.268,-0.595 3.532,0.504 3.535,1.716 0,0.195 0.143,0.587 0.316,0.873 0.174,0.285 0.448,1.11 0.608,1.833 0.16,0.723 0.4,1.481 0.532,1.684 0.132,0.202 0.379,1.005 0.549,1.783 0.17,0.779 0.427,1.596 0.572,1.816 0.144,0.22 0.37,0.966 0.503,1.658 0.132,0.691 0.388,1.546 0.569,1.899 0.181,0.353 0.377,0.941 0.437,1.308 0.144,0.893 0.381,1.695 0.737,2.5 0.162,0.367 0.343,1.032 0.402,1.478 0.058,0.446 0.286,1.234 0.506,1.75 0.22,0.516 0.486,1.389 0.591,1.939 0.106,0.55 0.331,1.337 0.502,1.75 0.171,0.412 0.435,1.103 0.588,1.536 0.633,1.796 3.088,2.29 4.256,0.856 0.866,-1.064 0.962,-1.761 0.411,-2.981 -0.125,-0.278 -0.302,-0.964 -0.392,-1.525 -0.09,-0.56 -0.316,-1.318 -0.502,-1.683 -0.187,-0.365 -0.412,-1.115 -0.5,-1.666 -0.089,-0.552 -0.325,-1.322 -0.523,-1.712 -0.199,-0.39 -0.432,-1.204 -0.518,-1.809 -0.085,-0.605 -0.303,-1.383 -0.483,-1.729 -0.18,-0.345 -0.446,-1.204 -0.592,-1.908 -0.145,-0.704 -0.408,-1.561 -0.584,-1.906 -1.027,-2.014 1.809,-5.011 3.417,-3.611 0.099,0.087 0.405,0.291 0.68,0.454 0.363,0.215 0.565,0.521 0.738,1.115 0.13,0.45 0.411,1.194 0.623,1.652 0.212,0.458 0.387,1.06 0.388,1.338 0.009,2.795 7.345,0.121 8.7,-3.171 0.113,-0.275 0.34,-0.646 0.505,-0.825 0.306,-0.332 0.627,-1.263 0.629,-1.824 0,-0.173 0.143,-0.811 0.317,-1.417 0.585,-2.037 0.572,-5.285 -0.034,-8.184 -0.144,-0.688 -0.343,-1.807 -0.443,-2.488 -0.1,-0.681 -0.32,-1.468 -0.488,-1.75 -0.169,-0.282 -0.399,-1 -0.511,-1.596 -0.112,-0.596 -0.344,-1.346 -0.515,-1.666 -0.171,-0.321 -0.427,-0.99 -0.568,-1.487 -0.141,-0.497 -0.357,-1.059 -0.481,-1.25 -0.123,-0.191 -0.392,-0.872 -0.598,-1.513 -0.205,-0.642 -0.473,-1.28 -0.595,-1.417 -0.122,-0.138 -0.37,-0.639 -0.55,-1.115 -0.18,-0.476 -0.486,-1.068 -0.68,-1.315 -0.194,-0.246 -0.353,-0.573 -0.353,-0.727 0,-0.153 -0.213,-0.613 -0.473,-1.023 -0.26,-0.41 -0.522,-0.943 -0.583,-1.186 -0.061,-0.243 -0.286,-0.654 -0.501,-0.913 -0.215,-0.259 -0.479,-0.73 -0.587,-1.047 -0.108,-0.317 -0.333,-0.73 -0.499,-0.917 -0.167,-0.187 -0.403,-0.603 -0.524,-0.924 -0.121,-0.321 -0.35,-0.733 -0.508,-0.916 -0.158,-0.184 -0.441,-0.639 -0.628,-1.011 -0.187,-0.373 -0.45,-0.77 -0.584,-0.881 -0.134,-0.111 -0.341,-0.444 -0.46,-0.739 -0.119,-0.295 -0.427,-0.797 -0.685,-1.116 -0.257,-0.318 -0.471,-0.656 -0.475,-0.75 -0.004,-0.093 -0.229,-0.43 -0.5,-0.747 -0.271,-0.317 -0.494,-0.655 -0.494,-0.75 0,-0.095 -0.225,-0.435 -0.499,-0.756 -0.275,-0.321 -0.5,-0.67 -0.5,-0.776 0,-0.106 -0.258,-0.502 -0.574,-0.879 -0.315,-0.377 -0.62,-0.834 -0.678,-1.016 -0.057,-0.181 -0.173,-0.329 -0.257,-0.329 -0.085,0 -0.35,-0.319 -0.591,-0.709 -0.24,-0.389 -0.522,-0.783 -0.627,-0.875 -0.252,-0.221 -1.486,-1.817 -2.601,-3.365 -0.317,-0.441 -0.73,-0.971 -0.916,-1.178 -0.187,-0.208 -0.527,-0.612 -0.756,-0.899 -0.229,-0.288 -0.68,-0.81 -1,-1.162 -0.321,-0.351 -1.034,-1.141 -1.584,-1.754 C 97.893,14.054 90.687,7.486 88.479,6.326 88.261,6.212 88.026,6.021 87.956,5.904 87.886,5.786 87.624,5.584 87.373,5.455 86.937,5.23 85.75,4.524 84.5,3.744 84.179,3.544 83.654,3.283 83.333,3.163 83.012,3.044 82.6,2.815 82.417,2.655 82.233,2.495 81.677,2.245 81.181,2.1 80.684,1.954 80.158,1.726 80.012,1.594 79.74,1.348 78.99,1.134 77.292,0.82 76.517,0.677 76.333,0.581 76.333,0.322 76.333,0.013 76.171,0 72.167,0 68.096,0 68,0.008 68,0.337 m 9.094,15.261 c 0.269,0.182 0.677,0.425 0.907,0.54 1.998,0.998 2.053,4.698 0.096,6.487 -3.444,3.147 -9.476,-0.184 -7.665,-4.234 0.129,-0.288 0.235,-0.609 0.235,-0.712 0,-0.312 1.309,-1.629 1.837,-1.847 C 72.777,15.719 73,15.566 73,15.491 c 0,-0.45 3.402,-0.362 4.094,0.107 m 8.849,7.172 c 0.386,0.157 1.547,1.409 1.865,2.011 0.248,0.469 0.25,3.299 0.002,3.762 -1.344,2.512 -4.45,3.317 -6.956,1.803 -0.653,-0.395 -1.187,-0.735 -1.187,-0.757 0,-0.022 -0.188,-0.557 -0.417,-1.189 -0.823,-2.27 -0.027,-4.402 2.083,-5.581 0.778,-0.434 3.593,-0.465 4.61,-0.049 m -14.446,2.776 c 1.091,0.492 2.082,1.371 2.356,2.09 0.341,0.895 0.176,3.275 -0.269,3.881 -0.23,0.311 -0.544,0.763 -0.699,1.003 -1.255,1.939 -5.115,1.961 -6.911,0.037 -1.124,-1.202 -1.609,-3.597 -0.89,-4.391 0.137,-0.152 0.249,-0.388 0.249,-0.526 0,-0.332 1.634,-1.973 1.965,-1.973 0.142,0 0.377,-0.106 0.522,-0.236 0.752,-0.674 2.015,-0.634 3.677,0.115 m 210.836,0.537 c -0.233,0.281 0.097,0.644 2.552,2.804 0.747,0.658 1.698,1.524 2.112,1.925 1.013,0.98 1.568,1.188 3.175,1.188 2.074,0 2.349,-0.529 0.995,-1.911 -0.289,-0.295 -1.479,-1.595 -1.804,-1.97 -0.185,-0.215 -0.733,-0.769 -1.53,-1.548 l -0.75,-0.734 -2.271,-0.002 c -1.816,-0.001 -2.313,0.048 -2.479,0.248 M 33.968,30.239 c 0.486,0.13 0.974,0.304 1.083,0.386 0.109,0.083 0.574,0.288 1.032,0.456 1.336,0.488 4.094,2.981 4.785,4.325 0.186,0.361 0.441,0.76 0.568,0.887 0.126,0.127 0.272,0.431 0.323,0.677 0.195,0.935 0.461,1.976 0.702,2.749 0.28,0.895 0.215,3.618 -0.094,3.991 -0.097,0.116 -0.263,0.585 -0.369,1.042 -0.269,1.156 -0.519,1.777 -0.867,2.154 -0.164,0.178 -0.298,0.456 -0.298,0.618 0,0.424 -3.379,3.773 -3.949,3.914 -0.257,0.064 -0.736,0.293 -1.065,0.51 -0.544,0.358 -2.68,0.9 -4.582,1.162 -0.883,0.122 -4.44,-0.668 -5.233,-1.162 -0.322,-0.2 -0.849,-0.484 -1.17,-0.63 -1.31,-0.596 -4.334,-3.769 -4.334,-4.548 0,-0.123 -0.244,-0.665 -0.542,-1.205 l -0.541,-0.982 0.006,-3.083 0.006,-3.083 0.535,-1.021 c 0.295,-0.561 0.536,-1.113 0.536,-1.227 0,-0.309 0.753,-1.213 2.347,-2.815 1.774,-1.783 1.83,-1.827 2.87,-2.222 0.467,-0.177 1.004,-0.411 1.191,-0.519 1.079,-0.62 5.297,-0.843 7.06,-0.374 m 46.593,2.6 c 0.366,0.27 0.953,0.837 1.303,1.261 l 0.636,0.77 v 1.632 c 0,4.824 -6.646,6.241 -8.675,1.85 -0.471,-1.019 -0.68,-2.519 -0.352,-2.519 0.077,0 0.244,-0.314 0.371,-0.699 0.229,-0.692 0.934,-1.504 1.992,-2.293 1.118,-0.833 3.592,-0.834 4.725,-0.002 m -51.013,1.502 c -0.569,0.059 -1.142,0.196 -1.274,0.306 -0.132,0.109 -0.646,0.402 -1.143,0.651 -2.922,1.463 -4.529,6.314 -2.964,8.952 0.272,0.458 0.497,0.946 0.5,1.083 0.006,0.268 1.285,1.638 2.195,2.352 0.305,0.239 0.967,0.527 1.471,0.641 0.504,0.113 1.231,0.283 1.616,0.376 0.479,0.116 0.95,0.114 1.5,-0.007 0.44,-0.097 1.151,-0.221 1.579,-0.277 1.527,-0.198 4.639,-3.009 4.639,-4.19 0,-0.21 0.157,-0.803 0.349,-1.317 0.394,-1.053 0.372,-1.486 -0.177,-3.487 -0.236,-0.857 -0.542,-1.534 -0.866,-1.916 -1.192,-1.404 -1.887,-2.053 -2.372,-2.217 -0.285,-0.096 -0.727,-0.321 -0.984,-0.5 -0.256,-0.179 -0.744,-0.352 -1.083,-0.386 -1.568,-0.154 -2.019,-0.164 -2.986,-0.064 m 202.161,-0.002 c -0.665,0.083 -1.434,0.269 -1.71,0.412 -0.276,0.142 -0.933,0.395 -1.459,0.56 -0.526,0.166 -1.248,0.501 -1.605,0.745 -0.356,0.244 -0.736,0.444 -0.843,0.444 -0.108,0 -0.341,0.131 -0.519,0.292 -0.178,0.16 -0.589,0.489 -0.913,0.731 -0.775,0.579 -2.659,2.502 -2.665,2.722 -0.002,0.094 -0.228,0.468 -0.502,0.83 -0.274,0.362 -0.574,0.939 -0.667,1.284 -0.092,0.344 -0.265,0.723 -0.384,0.842 -1.087,1.089 -1.107,8.459 -0.029,10.632 0.205,0.413 0.419,0.944 0.476,1.181 0.057,0.237 0.33,0.716 0.607,1.065 0.277,0.348 0.504,0.717 0.504,0.819 0,0.151 0.904,1.273 1.456,1.809 1.06,1.028 1.557,1.46 1.678,1.46 0.081,0 0.36,0.182 0.619,0.405 0.259,0.222 0.796,0.529 1.192,0.68 0.397,0.152 0.722,0.335 0.722,0.408 0,0.16 0.651,0.425 1.666,0.677 0.413,0.103 1.079,0.343 1.48,0.534 1.229,0.583 6.577,0.522 7.853,-0.09 0.503,-0.242 1.228,-0.486 1.611,-0.544 0.383,-0.057 0.842,-0.24 1.02,-0.405 0.177,-0.166 0.615,-0.451 0.971,-0.634 0.357,-0.183 0.83,-0.527 1.053,-0.765 0.222,-0.238 0.484,-0.435 0.583,-0.438 0.372,-0.011 2.71,-2.81 2.865,-3.43 0.173,-0.686 -0.967,-1.896 -1.787,-1.898 -0.148,0 -0.523,-0.172 -0.834,-0.381 -0.31,-0.21 -0.827,-0.48 -1.148,-0.601 -0.321,-0.12 -0.74,-0.292 -0.931,-0.382 -0.622,-0.293 -1.279,-0.097 -1.68,0.501 -1.431,2.13 -2.981,2.946 -5.597,2.946 -1.754,0 -2.959,-0.235 -2.959,-0.577 0,-0.066 -0.291,-0.216 -0.647,-0.333 -0.356,-0.118 -0.974,-0.505 -1.375,-0.86 -0.4,-0.355 -0.77,-0.646 -0.822,-0.646 -0.052,-0.001 -0.271,-0.319 -0.488,-0.709 -0.216,-0.39 -0.444,-0.746 -0.507,-0.792 -1.293,-0.943 -1.221,-7.132 0.098,-8.509 0.224,-0.234 0.408,-0.498 0.408,-0.587 0,-0.287 1.56,-1.644 2.246,-1.954 0.365,-0.166 0.786,-0.411 0.934,-0.545 0.818,-0.741 5.497,-0.662 6.161,0.104 0.155,0.179 0.358,0.325 0.452,0.325 0.277,0 1.849,1.486 2.085,1.971 0.316,0.65 1.749,0.615 2.901,-0.07 0.442,-0.264 1.095,-0.58 1.451,-0.704 0.355,-0.123 0.801,-0.368 0.99,-0.544 0.188,-0.176 0.429,-0.32 0.533,-0.32 2.135,0 -2.994,-6.181 -5.604,-6.754 -0.285,-0.062 -0.88,-0.302 -1.323,-0.531 -0.915,-0.475 -5.167,-0.685 -7.617,-0.376 m -73.126,0.115 c -0.778,0.191 -0.75,-0.34 -0.75,13.9 0,15.992 -0.364,14.143 2.792,14.152 1.169,0.003 5.008,0.073 8.532,0.155 8.184,0.191 7.621,0.426 7.535,-3.143 -0.076,-3.123 0.443,-2.837 -5.192,-2.856 -5.605,-0.018 -5.848,-0.051 -6.116,-0.831 -0.145,-0.424 -0.201,-3.355 -0.208,-10.867 -0.009,-9.993 -0.018,-10.291 -0.332,-10.458 -0.32,-0.172 -5.596,-0.215 -6.261,-0.052 m 29.96,-0.005 c -0.439,0.087 -0.876,0.65 -0.876,1.13 0,0.186 -0.218,0.788 -0.485,1.338 -0.266,0.55 -0.582,1.337 -0.702,1.75 -0.12,0.412 -0.344,0.975 -0.497,1.25 -0.154,0.275 -0.373,0.905 -0.487,1.401 -0.115,0.496 -0.377,1.15 -0.583,1.453 -0.205,0.303 -0.425,0.835 -0.487,1.182 -0.062,0.347 -0.285,0.968 -0.494,1.38 -0.209,0.413 -0.473,1.125 -0.586,1.584 -0.112,0.458 -0.343,1.058 -0.513,1.333 -0.169,0.275 -0.398,0.875 -0.508,1.333 -0.109,0.459 -0.34,1.082 -0.512,1.385 -0.172,0.303 -0.399,0.903 -0.504,1.333 -0.106,0.43 -0.359,1.12 -0.562,1.532 -0.204,0.413 -0.498,1.192 -0.654,1.732 -0.155,0.54 -0.391,1.147 -0.524,1.35 -0.132,0.202 -0.353,0.801 -0.491,1.33 -0.138,0.529 -0.387,1.16 -0.554,1.4 -0.56,0.809 -0.775,1.952 -0.458,2.436 l 0.275,0.419 h 3.467 c 3.385,0 3.475,-0.009 3.804,-0.375 0.437,-0.486 1.055,-1.799 1.055,-2.242 0,-0.191 0.143,-0.523 0.318,-0.74 l 0.318,-0.393 4.89,-0.054 c 5.258,-0.059 6.035,0.026 6.231,0.683 0.096,0.325 0.492,1.232 1.143,2.621 l 0.195,0.417 3.411,0.047 c 1.876,0.026 3.577,0.006 3.781,-0.044 0.483,-0.118 0.804,-0.693 0.554,-0.994 -0.101,-0.121 -0.295,-0.65 -0.432,-1.177 -0.137,-0.526 -0.387,-1.154 -0.556,-1.394 -0.169,-0.241 -0.403,-0.851 -0.519,-1.355 -0.117,-0.504 -0.385,-1.217 -0.594,-1.583 -0.21,-0.367 -0.437,-0.967 -0.503,-1.334 -0.067,-0.366 -0.335,-1.088 -0.596,-1.604 -0.261,-0.515 -0.475,-1.068 -0.475,-1.229 0,-0.16 -0.262,-0.873 -0.583,-1.583 -0.321,-0.711 -0.584,-1.395 -0.584,-1.521 0,-0.126 -0.225,-0.679 -0.499,-1.229 -0.275,-0.55 -0.499,-1.181 -0.5,-1.402 0,-0.221 -0.179,-0.709 -0.398,-1.084 -0.219,-0.374 -0.521,-1.165 -0.672,-1.757 -0.151,-0.592 -0.389,-1.203 -0.53,-1.359 -0.141,-0.155 -0.36,-0.73 -0.488,-1.277 -0.127,-0.548 -0.379,-1.249 -0.56,-1.558 -0.18,-0.31 -0.435,-0.976 -0.566,-1.48 -0.132,-0.504 -0.494,-1.404 -0.805,-2 L 197.083,34.417 193,34.396 c -2.246,-0.011 -4.251,0.013 -4.457,0.053 m 115.364,0.121 c -0.485,0.354 -0.6,26.995 -0.119,27.571 0.391,0.469 6.556,0.586 7.009,0.134 0.219,-0.22 0.248,-1.252 0.217,-7.853 -0.035,-7.259 -0.01,-7.777 0.428,-9.089 0.124,-0.371 0.491,0.415 0.625,1.339 0.06,0.416 0.268,1.016 0.461,1.333 0.194,0.318 0.489,1.056 0.656,1.64 0.167,0.584 0.416,1.233 0.554,1.443 0.137,0.21 0.339,0.744 0.448,1.188 0.109,0.444 0.371,1.145 0.582,1.557 0.211,0.413 0.464,1.112 0.561,1.553 0.098,0.442 0.324,1.004 0.503,1.25 0.178,0.246 0.432,0.864 0.562,1.374 0.131,0.509 0.396,1.22 0.588,1.58 0.193,0.36 0.394,0.918 0.446,1.24 0.367,2.25 4.014,2.5 4.495,0.308 0.062,-0.282 0.251,-0.747 0.42,-1.034 0.169,-0.286 0.422,-0.963 0.563,-1.504 0.14,-0.542 0.37,-1.158 0.509,-1.371 0.14,-0.213 0.357,-0.783 0.484,-1.266 0.126,-0.484 0.426,-1.247 0.665,-1.696 0.24,-0.449 0.436,-0.982 0.436,-1.185 0,-0.203 0.214,-0.773 0.476,-1.267 0.262,-0.494 0.531,-1.195 0.597,-1.557 0.067,-0.363 0.283,-0.963 0.481,-1.334 0.198,-0.371 0.477,-1.124 0.62,-1.673 0.286,-1.102 0.657,-1.362 1.023,-0.719 0.172,0.3 0.225,2.013 0.245,7.827 0.028,8.235 0.008,8.018 0.782,8.256 0.918,0.282 5.941,-0.051 6.215,-0.412 0.411,-0.542 0.319,-27.475 -0.095,-27.697 -0.423,-0.227 -8.554,-0.228 -9.369,-0.002 -0.65,0.181 -0.715,0.279 -1.066,1.598 -0.124,0.468 -0.371,1.105 -0.549,1.416 -0.178,0.311 -0.417,0.978 -0.531,1.482 -0.115,0.504 -0.338,1.104 -0.496,1.333 -0.157,0.23 -0.381,0.817 -0.496,1.305 -0.115,0.488 -0.419,1.313 -0.674,1.833 -0.256,0.52 -0.519,1.208 -0.585,1.529 -0.066,0.321 -0.248,0.771 -0.405,1 -0.157,0.229 -0.379,0.792 -0.493,1.25 -0.38,1.524 -0.443,1.609 -1.136,1.552 l -0.621,-0.052 -0.274,-1.167 c -0.15,-0.641 -0.47,-1.534 -0.711,-1.983 -0.241,-0.449 -0.438,-0.981 -0.438,-1.183 0,-0.202 -0.188,-0.722 -0.419,-1.155 -0.23,-0.433 -0.496,-1.138 -0.591,-1.567 -0.094,-0.428 -0.347,-1.116 -0.561,-1.528 -0.213,-0.413 -0.513,-1.235 -0.664,-1.827 -0.152,-0.593 -0.338,-1.118 -0.414,-1.167 -0.075,-0.049 -0.232,-0.39 -0.349,-0.756 -0.572,-1.806 -0.585,-1.83 -1.092,-1.938 -1.094,-0.235 -9.163,-0.158 -9.503,0.091 m -53.24,0.263 c -0.328,0.328 -0.334,0.556 -0.334,13.822 v 13.489 l 0.484,0.345 c 0.444,0.316 0.72,0.344 3.324,0.344 3.677,0 3.359,0.442 3.359,-4.672 0,-4.831 -0.123,-4.556 2.066,-4.635 1.569,-0.057 2.101,0.094 2.101,0.596 0,0.081 0.183,0.395 0.406,0.698 0.224,0.303 0.539,0.918 0.7,1.366 0.161,0.448 0.344,0.814 0.407,0.814 0.063,0 0.289,0.431 0.502,0.958 0.213,0.527 0.562,1.216 0.774,1.53 0.212,0.314 0.433,0.764 0.491,1 0.104,0.424 0.4,0.875 1.23,1.875 l 0.426,0.513 3.407,-0.198 c 4.32,-0.252 4.671,-0.388 3.815,-1.477 -0.179,-0.227 -0.325,-0.509 -0.325,-0.627 0,-0.118 -0.171,-0.427 -0.379,-0.686 -0.209,-0.259 -0.486,-0.696 -0.617,-0.971 -0.131,-0.275 -0.398,-0.688 -0.594,-0.917 -0.196,-0.229 -0.456,-0.679 -0.577,-1 -0.121,-0.321 -0.343,-0.733 -0.492,-0.917 -0.149,-0.183 -0.401,-0.596 -0.56,-0.916 -0.159,-0.321 -0.474,-0.839 -0.701,-1.15 -0.744,-1.02 -0.47,-1.88 0.79,-2.484 0.622,-0.297 1.63,-1.176 2.618,-2.283 0.164,-0.183 0.393,-0.633 0.509,-1 0.116,-0.367 0.371,-1.036 0.566,-1.486 0.293,-0.681 0.354,-1.151 0.354,-2.764 0,-1.613 -0.061,-2.083 -0.354,-2.764 -0.195,-0.45 -0.449,-1.119 -0.565,-1.486 -0.286,-0.902 -2.265,-3.238 -2.752,-3.247 -0.093,-0.002 -0.433,-0.22 -0.755,-0.486 -0.322,-0.265 -0.921,-0.573 -1.33,-0.684 -0.409,-0.111 -1.017,-0.344 -1.35,-0.518 -0.967,-0.503 -16.14,-0.486 -16.644,0.018 m 28.145,-0.057 c -0.431,0.518 -0.414,26.813 0.017,27.516 l 0.333,0.541 h 9.755 9.755 l 0.297,-0.488 c 0.376,-0.619 0.408,-4.974 0.04,-5.418 -0.189,-0.227 -0.966,-0.26 -6.088,-0.26 -7.567,0 -7.256,0.12 -7.252,-2.8 0.004,-2.404 -0.64,-2.195 6.931,-2.245 7.122,-0.047 6.4,0.298 6.4,-3.059 0,-3.575 0.683,-3.23 -6.396,-3.23 -4.739,0 -5.834,-0.043 -6.334,-0.252 l -0.603,-0.252 v -1.727 c 0,-2.388 -0.641,-2.179 6.793,-2.217 5.459,-0.029 6.28,-0.066 6.537,-0.299 0.324,-0.293 0.303,-5.163 -0.024,-5.794 -0.227,-0.438 -19.798,-0.453 -20.161,-0.016 m 62.369,-0.044 c -0.334,0.404 -0.27,27.19 0.067,27.704 l 0.26,0.397 h 9.748 9.749 l 0.33,-0.541 c 0.426,-0.699 0.489,-4.82 0.082,-5.358 -0.226,-0.299 -0.56,-0.316 -6.351,-0.333 l -6.113,-0.018 -0.351,-0.472 c -0.515,-0.691 -0.515,-3.879 0,-4.221 0.26,-0.172 1.677,-0.231 6.358,-0.264 4.49,-0.032 6.076,-0.095 6.228,-0.247 0.247,-0.248 0.213,-5.275 -0.04,-5.747 -0.149,-0.279 -0.56,-0.299 -6.161,-0.299 h -6.002 l -0.409,-0.409 c -0.441,-0.44 -0.513,-1.122 -0.303,-2.865 0.154,-1.281 0.002,-1.255 6.951,-1.211 5.726,0.037 6.002,0.024 6.23,-0.28 0.329,-0.439 0.244,-5.378 -0.099,-5.792 -0.32,-0.386 -19.855,-0.428 -20.174,-0.044 m -75.969,6.79 c 2.404,1.381 2.248,4.511 -0.273,5.469 -0.858,0.327 -6.946,0.228 -7.207,-0.116 -0.279,-0.368 -0.318,-4.579 -0.049,-5.35 L 257.866,41 h 3.219 3.218 l 0.909,0.522 m -72.046,2.14 c 0.087,0.323 0.267,0.742 0.399,0.93 0.133,0.188 0.354,0.863 0.493,1.5 0.138,0.637 0.443,1.608 0.676,2.158 0.234,0.55 0.427,1.151 0.429,1.336 0.002,0.184 0.154,0.746 0.337,1.247 0.446,1.22 0.432,1.291 -0.292,1.492 -1.377,0.382 -6.041,0.129 -6.041,-0.328 0,-0.065 0.187,-0.708 0.416,-1.43 0.23,-0.722 0.417,-1.416 0.417,-1.542 0,-0.127 0.182,-0.578 0.404,-1.002 0.222,-0.425 0.494,-1.186 0.606,-1.69 0.111,-0.504 0.332,-1.179 0.49,-1.5 0.159,-0.321 0.383,-0.883 0.499,-1.25 0.416,-1.312 0.798,-1.287 1.167,0.079 M 71.169,47.418 c 1.005,0.52 1.068,2.853 0.131,4.915 -0.229,0.504 -0.464,1.115 -0.523,1.356 -0.207,0.851 -2,3.392 -3.19,4.522 -1.401,1.329 -1.576,1.468 -2.155,1.71 -0.307,0.128 -0.774,0.407 -1.037,0.619 -0.263,0.212 -0.778,0.489 -1.145,0.615 -0.367,0.127 -0.854,0.364 -1.083,0.529 -1.476,1.058 -10.834,1.051 -10.834,-0.008 0,-0.142 -1.1,-0.676 -1.392,-0.676 -0.118,0 -0.51,-0.223 -0.87,-0.495 -0.36,-0.273 -0.75,-0.498 -0.867,-0.5 -0.391,-0.009 -2.739,-2.318 -3.124,-3.072 -0.59,-1.158 -0.083,-2.598 1.028,-2.916 0.619,-0.178 1.344,0.258 2.754,1.657 1.109,1.1 2.659,2.087 3.613,2.302 0.384,0.086 0.868,0.268 1.074,0.403 0.998,0.654 5.495,0.687 6.509,0.048 0.197,-0.124 0.79,-0.348 1.317,-0.498 0.527,-0.149 0.958,-0.333 0.958,-0.407 0,-0.075 0.338,-0.31 0.75,-0.522 0.939,-0.483 2.998,-2.512 3.452,-3.403 0.188,-0.368 0.481,-0.86 0.649,-1.092 0.169,-0.232 0.42,-0.872 0.558,-1.422 0.527,-2.107 1.121,-3.604 1.487,-3.752 0.558,-0.225 1.41,-0.187 1.94,0.087 m 41.745,8.007 c 0.746,0.683 1.453,2.277 1.838,4.144 0.137,0.662 0.414,1.536 0.615,1.942 0.241,0.487 0.389,1.153 0.435,1.953 l 0.068,1.213 -0.851,0.852 -0.851,0.851 -0.972,-0.088 c -1.363,-0.124 -2.356,-1.111 -2.676,-2.659 -0.118,-0.57 -0.324,-1.249 -0.458,-1.508 -0.214,-0.414 -0.426,-1.126 -1.259,-4.234 -0.572,-2.136 2.476,-3.964 4.111,-2.466 M 68.833,72.319 c -0.687,0.162 -1.85,0.389 -2.583,0.505 -0.733,0.117 -1.612,0.354 -1.953,0.528 -0.341,0.174 -1.062,0.419 -1.603,0.545 -0.541,0.127 -1.319,0.426 -1.728,0.666 -0.41,0.241 -0.851,0.437 -0.981,0.437 -0.13,0 -0.605,0.262 -1.057,0.583 -0.451,0.321 -0.901,0.584 -0.999,0.584 -0.098,0 -0.442,0.225 -0.762,0.5 -0.321,0.274 -0.661,0.499 -0.755,0.499 -0.094,0 -0.41,0.207 -0.702,0.459 -0.292,0.252 -0.832,0.683 -1.199,0.958 -1.299,0.973 -1.402,1.892 -0.492,4.405 0.185,0.511 0.452,1.416 0.594,2.012 0.141,0.596 0.4,1.421 0.575,1.833 1.085,2.561 1.206,6.561 0.238,7.888 -0.145,0.199 -0.425,0.587 -0.621,0.862 -0.543,0.759 -1.773,1.607 -2.888,1.99 -1.692,0.581 -1.479,1.433 1.142,4.555 0.353,0.421 0.722,0.94 0.818,1.152 0.097,0.213 0.236,0.387 0.309,0.387 0.073,0 0.331,0.337 0.573,0.75 0.242,0.412 0.502,0.75 0.579,0.75 0.077,0 0.185,0.143 0.241,0.318 0.055,0.176 0.304,0.58 0.553,0.898 0.248,0.319 0.751,1.01 1.118,1.537 0.367,0.527 0.835,1.155 1.041,1.394 0.363,0.423 0.702,0.886 1.663,2.269 0.254,0.367 0.631,0.839 0.838,1.05 0.206,0.21 0.375,0.45 0.375,0.534 0,0.083 0.178,0.329 0.395,0.547 0.217,0.217 0.488,0.567 0.6,0.778 0.211,0.394 1.074,1.605 1.668,2.341 0.185,0.23 0.547,0.68 0.805,1 0.258,0.321 0.64,0.882 0.85,1.246 0.21,0.365 0.524,0.763 0.698,0.885 0.174,0.122 0.317,0.319 0.317,0.437 0,0.119 0.225,0.452 0.5,0.739 0.275,0.288 0.5,0.57 0.5,0.627 0,0.102 1.286,1.904 1.713,2.4 0.62,0.721 1.62,2.137 1.62,2.293 0,0.098 0.061,0.204 0.135,0.234 0.168,0.07 2.499,3.143 2.949,3.888 0.183,0.304 0.521,0.785 0.75,1.07 1.221,1.516 1.5,1.892 1.5,2.024 0,0.079 0.162,0.296 0.361,0.481 0.198,0.185 0.517,0.595 0.708,0.911 0.191,0.316 0.928,1.332 1.637,2.258 0.71,0.926 1.396,1.887 1.526,2.137 0.13,0.25 0.431,0.635 0.668,0.858 0.238,0.222 0.433,0.497 0.433,0.611 0,0.113 0.225,0.419 0.5,0.678 0.275,0.26 0.5,0.554 0.5,0.655 0,0.244 1.418,1.735 1.65,1.735 0.101,0 0.183,0.15 0.183,0.333 0,0.537 2.182,0.5 2.419,-0.041 0.091,-0.207 0.324,-0.445 0.519,-0.531 0.711,-0.312 0.76,-0.621 1.003,-6.332 0.13,-3.032 0.305,-6.187 0.39,-7.012 0.085,-0.825 0.233,-4.725 0.329,-8.667 0.267,-10.955 0.468,-16.219 0.742,-19.417 0.454,-5.306 0.436,-15.768 -0.028,-16.554 -0.208,-0.35 -0.478,-1.213 -0.602,-1.916 -0.124,-0.704 -0.382,-1.58 -0.574,-1.946 C 88.339,81.55 88.11,80.794 88.022,80.236 87.933,79.678 87.667,78.762 87.43,78.199 87.194,77.637 87,76.985 87,76.75 87,76.043 86.549,75.177 86.091,75.003 85.857,74.914 85.329,74.688 84.917,74.5 84.506,74.313 83.545,74.051 82.783,73.918 82.02,73.785 81.101,73.552 80.74,73.401 80.379,73.249 79.108,72.983 77.917,72.81 71.689,71.903 70.803,71.855 68.833,72.319 m 176.417,4.202 c -2.579,0.311 -5.079,0.81 -5.681,1.134 -0.359,0.193 -0.93,0.427 -1.27,0.519 -0.339,0.093 -0.722,0.273 -0.851,0.402 -0.128,0.128 -0.453,0.37 -0.722,0.537 -2.291,1.425 -4.424,3.898 -5.131,5.95 -0.13,0.378 -0.409,1.062 -0.62,1.52 -0.762,1.655 -0.637,7.694 0.189,9.143 0.165,0.288 0.347,0.8 0.406,1.138 0.059,0.338 0.368,0.993 0.686,1.455 0.317,0.462 0.577,0.891 0.577,0.955 0,0.134 0.449,0.629 1.691,1.864 1.702,1.694 1.894,1.862 2.119,1.862 0.124,0 0.448,0.188 0.721,0.417 0.272,0.229 0.695,0.458 0.941,0.51 0.245,0.051 0.913,0.317 1.485,0.59 1.051,0.501 1.296,0.54 5.793,0.917 1.81,0.152 4.676,-0.289 5.965,-0.917 0.584,-0.284 1.206,-0.517 1.382,-0.518 0.176,0 0.576,-0.169 0.89,-0.375 0.313,-0.206 0.722,-0.463 0.907,-0.572 1.199,-0.704 3.258,-2.721 3.437,-3.366 0.31,-1.117 0.218,-10.271 -0.106,-10.541 -0.448,-0.372 -12.991,-0.496 -13.32,-0.132 -0.291,0.321 -0.347,5.473 -0.065,5.998 0.16,0.299 0.374,0.322 2.974,0.322 2.579,0 2.825,0.026 3.1,0.33 0.616,0.681 0.042,2.314 -0.963,2.745 -1.767,0.757 -2.491,0.972 -3.534,1.047 -1.219,0.087 -1.613,0.011 -3.442,-0.669 -2.128,-0.789 -4.235,-2.841 -4.738,-4.61 -0.118,-0.418 -0.329,-1.059 -0.469,-1.426 -0.36,-0.948 -0.339,-2.655 0.043,-3.489 0.17,-0.373 0.402,-1.009 0.515,-1.415 0.397,-1.427 3.146,-4.179 4.174,-4.179 0.212,0 0.8,-0.197 1.308,-0.437 1.062,-0.502 2.932,-0.513 3.698,-0.021 0.226,0.145 0.724,0.346 1.107,0.447 0.707,0.186 1.942,1.094 2.369,1.74 0.382,0.578 0.713,0.769 1.17,0.674 1.256,-0.259 1.859,-0.472 2.103,-0.741 0.149,-0.165 0.605,-0.398 1.014,-0.519 0.867,-0.256 2.287,-1.275 2.369,-1.7 0.093,-0.482 -2.623,-3.777 -3.114,-3.777 -0.079,0 -0.473,-0.261 -0.875,-0.581 -0.403,-0.32 -0.803,-0.583 -0.89,-0.584 -0.086,-0.001 -0.436,-0.194 -0.777,-0.43 -0.366,-0.255 -1.117,-0.527 -1.842,-0.669 -0.673,-0.131 -1.486,-0.31 -1.806,-0.396 -0.883,-0.237 -1.809,-0.285 -2.917,-0.152 m 141.417,0.007 c -2.158,0.222 -5.138,0.784 -5.853,1.104 -0.402,0.18 -1.077,0.478 -1.501,0.662 -0.423,0.184 -0.822,0.42 -0.886,0.523 -0.064,0.103 -0.389,0.302 -0.722,0.441 -0.332,0.139 -0.824,0.457 -1.093,0.706 -1.159,1.074 -2.144,2.155 -2.388,2.619 -0.145,0.275 -0.392,0.65 -0.55,0.834 -0.158,0.183 -0.387,0.595 -0.509,0.916 -0.123,0.321 -0.358,0.779 -0.522,1.019 -1.166,1.696 -1.142,8.997 0.036,11.065 0.156,0.275 0.378,0.8 0.493,1.166 0.115,0.367 0.405,0.906 0.644,1.198 0.238,0.292 0.734,0.919 1.101,1.394 0.779,1.009 2.775,2.825 3.105,2.825 0.126,0 0.446,0.188 0.713,0.418 0.267,0.229 0.772,0.494 1.123,0.589 0.351,0.094 0.998,0.352 1.438,0.573 2.212,1.111 10.315,1.119 11.423,0.01 0.129,-0.128 0.652,-0.355 1.163,-0.504 0.51,-0.148 1.102,-0.405 1.315,-0.571 0.212,-0.166 0.627,-0.425 0.921,-0.576 0.294,-0.15 0.724,-0.442 0.956,-0.648 0.231,-0.206 0.727,-0.637 1.1,-0.958 1.181,-1.013 1.159,-0.885 1.159,-6.732 0,-5.235 -0.001,-5.249 -0.37,-5.508 -0.319,-0.224 -1.222,-0.26 -6.496,-0.26 h -6.126 l -0.242,0.375 c -0.293,0.454 -0.23,5.56 0.072,5.863 0.104,0.105 1.297,0.213 2.895,0.262 1.955,0.06 2.794,0.148 2.992,0.312 0.828,0.688 -0.447,3.022 -1.651,3.022 -0.134,0 -0.599,0.168 -1.034,0.375 -0.895,0.425 -3.775,0.55 -4.223,0.183 -0.128,-0.105 -0.64,-0.311 -1.137,-0.457 -0.818,-0.242 -1.298,-0.483 -1.995,-1.005 -0.726,-0.543 -2.161,-2.215 -2.35,-2.74 -0.121,-0.333 -0.377,-0.819 -0.569,-1.079 -0.526,-0.711 -0.527,-4.841 -10e-4,-5.555 0.191,-0.26 0.395,-0.66 0.453,-0.889 0.344,-1.36 2.756,-3.505 4.435,-3.942 0.506,-0.132 1.042,-0.349 1.189,-0.482 0.349,-0.316 2.452,-0.332 2.913,-0.022 0.181,0.122 0.764,0.355 1.296,0.519 1.055,0.324 1.588,0.701 2.887,2.045 0.684,0.708 0.891,0.839 1.039,0.66 0.103,-0.123 0.491,-0.315 0.864,-0.427 0.372,-0.112 1.026,-0.424 1.451,-0.694 0.425,-0.27 0.89,-0.49 1.033,-0.49 0.356,0 2.175,-1.311 2.175,-1.568 0,-0.114 -0.187,-0.384 -0.416,-0.599 C 398.188,82.285 398,82.024 398,81.92 c 0,-0.561 -2.803,-3.046 -4.147,-3.678 -0.311,-0.146 -0.769,-0.416 -1.018,-0.601 -0.41,-0.302 -2.353,-0.799 -4.335,-1.108 -0.413,-0.064 -1.238,-0.067 -1.833,-0.005 m -68.192,0.465 c -4.917,0.104 -4.801,0.067 -5.236,1.661 -0.14,0.511 -0.476,1.392 -0.747,1.957 -0.27,0.565 -0.493,1.202 -0.495,1.416 -0.001,0.214 -0.225,0.765 -0.497,1.223 -0.272,0.458 -0.496,1.021 -0.497,1.25 -0.002,0.229 -0.219,0.867 -0.484,1.417 -0.265,0.55 -0.567,1.366 -0.672,1.813 -0.105,0.448 -0.337,0.999 -0.515,1.226 -0.178,0.226 -0.373,0.685 -0.433,1.019 -0.061,0.335 -0.219,0.823 -0.352,1.085 l -0.241,0.476 -0.501,-0.476 c -0.63,-0.6 -0.773,-0.866 -1.066,-1.993 -0.13,-0.5 -0.353,-1.086 -0.494,-1.301 -0.141,-0.216 -0.398,-0.87 -0.57,-1.454 -0.172,-0.584 -0.464,-1.348 -0.648,-1.697 -0.184,-0.349 -0.387,-0.946 -0.451,-1.326 -0.064,-0.38 -0.255,-0.882 -0.425,-1.115 -0.169,-0.233 -0.423,-0.874 -0.564,-1.424 -0.14,-0.55 -0.395,-1.19 -0.567,-1.423 -0.171,-0.233 -0.366,-0.683 -0.432,-1 C 302.295,76.928 302.582,77 297.283,77 c -3.992,0 -4.765,0.039 -5.079,0.259 l -0.371,0.26 v 13.465 13.464 l 0.351,0.318 c 0.448,0.405 6.224,0.489 6.696,0.098 0.233,-0.193 0.27,-1.166 0.317,-8.266 0.044,-6.616 0.095,-8.097 0.288,-8.33 0.285,-0.343 0.414,-0.219 0.677,0.649 0.111,0.366 0.42,1.13 0.687,1.697 0.266,0.568 0.484,1.168 0.484,1.334 10e-4,0.166 0.226,0.777 0.5,1.359 0.275,0.581 0.5,1.185 0.5,1.343 0,0.157 0.263,0.806 0.583,1.443 0.321,0.636 0.584,1.345 0.586,1.574 0.002,0.229 0.226,0.791 0.498,1.25 0.272,0.458 0.497,1.021 0.499,1.25 0.003,0.229 0.22,0.839 0.482,1.357 0.262,0.517 0.566,1.304 0.674,1.75 0.534,2.195 4.345,2.747 4.345,0.629 0,-0.196 0.214,-0.76 0.476,-1.255 0.262,-0.494 0.53,-1.198 0.596,-1.565 0.066,-0.366 0.291,-0.966 0.501,-1.333 0.21,-0.367 0.477,-1.079 0.594,-1.583 0.117,-0.505 0.342,-1.104 0.5,-1.334 0.158,-0.229 0.387,-0.829 0.509,-1.333 0.122,-0.504 0.345,-1.104 0.496,-1.333 0.151,-0.229 0.373,-0.792 0.495,-1.25 0.121,-0.459 0.393,-1.171 0.603,-1.584 0.21,-0.412 0.463,-1.115 0.561,-1.562 0.299,-1.353 0.479,-1.587 0.858,-1.118 0.293,0.362 0.311,0.822 0.311,8.127 0,7.023 0.026,7.77 0.279,8.024 0.432,0.431 6.442,0.516 6.905,0.097 0.305,-0.276 0.316,-0.745 0.316,-13.917 V 77.352 l -0.37,-0.259 c -0.204,-0.143 -0.485,-0.244 -0.625,-0.225 -0.14,0.019 -2.179,0.076 -4.53,0.125 m -159.746,0.188 c -0.832,0.241 -0.815,-0.08 -0.766,14.026 l 0.047,13.456 0.516,0.267 c 0.457,0.237 1.308,0.258 7.37,0.19 6.51,-0.074 7.68,-0.156 8.687,-0.609 0.568,-0.256 1.452,-0.511 1.769,-0.511 0.167,0 0.658,-0.225 1.092,-0.5 0.433,-0.275 0.907,-0.5 1.051,-0.5 0.145,0 0.51,-0.225 0.811,-0.5 0.302,-0.275 0.602,-0.5 0.668,-0.5 0.459,0 3.524,-3.555 3.529,-4.094 0.002,-0.177 0.22,-0.643 0.486,-1.035 0.266,-0.392 0.529,-1.03 0.586,-1.417 0.056,-0.387 0.264,-1.58 0.461,-2.65 l 0.358,-1.945 -0.352,-1.638 c -0.193,-0.901 -0.399,-1.975 -0.457,-2.388 -0.058,-0.412 -0.247,-1.012 -0.421,-1.333 -0.173,-0.321 -0.468,-0.907 -0.655,-1.302 -0.187,-0.395 -0.454,-0.834 -0.595,-0.974 -0.14,-0.141 -0.359,-0.457 -0.487,-0.703 -0.447,-0.866 -2.51,-2.724 -3.677,-3.313 -0.367,-0.184 -0.964,-0.495 -1.327,-0.689 -0.363,-0.194 -0.792,-0.352 -0.953,-0.352 -0.162,0 -0.713,-0.192 -1.226,-0.427 -1.456,-0.666 -14.609,-1.111 -16.515,-0.559 m 30.443,0.062 c -0.33,0.399 -0.275,18.104 0.06,19.045 0.138,0.387 0.375,1.212 0.528,1.833 0.162,0.66 0.443,1.306 0.675,1.555 0.219,0.234 0.398,0.496 0.399,0.583 0,0.322 2.263,2.735 2.577,2.748 0.095,0.003 0.432,0.228 0.749,0.5 0.318,0.271 0.673,0.493 0.79,0.493 0.116,0 0.644,0.224 1.173,0.498 2.277,1.182 9.957,1.29 12.293,0.173 0.367,-0.175 1.099,-0.478 1.626,-0.674 0.527,-0.195 0.958,-0.408 0.958,-0.473 0,-0.065 0.227,-0.253 0.504,-0.417 0.991,-0.585 2.673,-2.687 3.058,-3.818 0.137,-0.406 0.403,-1.031 0.59,-1.39 0.706,-1.355 1.073,-19.598 0.413,-20.541 -0.357,-0.51 -6.792,-0.508 -7.077,0.003 -0.088,0.157 -0.179,3.952 -0.209,8.75 -0.065,10.194 0.064,9.442 -1.992,11.545 -1.804,1.845 -5.998,1.95 -7.627,0.19 -0.233,-0.251 -0.538,-0.526 -0.677,-0.61 -0.139,-0.084 -0.548,-0.678 -0.909,-1.319 l -0.657,-1.167 -0.044,-8.556 c -0.028,-5.428 -0.106,-8.673 -0.214,-8.875 -0.229,-0.429 -6.637,-0.498 -6.987,-0.076 m 80.953,0.015 c -0.464,0.256 -0.958,1.174 -0.958,1.78 0,0.182 -0.196,0.716 -0.434,1.188 -0.239,0.471 -0.54,1.26 -0.67,1.753 -0.13,0.492 -0.374,1.092 -0.543,1.333 -0.169,0.241 -0.404,0.85 -0.523,1.354 -0.119,0.504 -0.385,1.233 -0.591,1.621 -0.207,0.388 -0.428,1.026 -0.492,1.417 -0.064,0.392 -0.286,0.939 -0.494,1.215 -0.208,0.277 -0.431,0.822 -0.497,1.213 -0.066,0.39 -0.29,1.028 -0.496,1.416 -0.207,0.389 -0.477,1.119 -0.601,1.621 -0.123,0.503 -0.358,1.111 -0.522,1.352 -0.164,0.241 -0.41,0.871 -0.548,1.401 -0.138,0.529 -0.357,1.125 -0.487,1.323 -0.13,0.198 -0.401,0.913 -0.602,1.588 -0.201,0.676 -0.472,1.39 -0.602,1.589 -0.13,0.198 -0.344,0.774 -0.476,1.279 -0.132,0.505 -0.385,1.173 -0.564,1.484 -1.051,1.832 -0.805,1.982 3.247,1.982 3.847,0 4.459,-0.149 4.714,-1.143 0.086,-0.334 0.238,-0.922 0.339,-1.307 0.123,-0.471 0.384,-0.865 0.8,-1.208 L 269.743,101 h 4.856 4.856 l 0.611,0.784 c 0.337,0.432 0.653,0.975 0.703,1.209 0.473,2.203 0.395,2.168 4.83,2.171 4.159,0.003 4.285,-0.042 3.902,-1.41 -0.116,-0.415 -0.268,-0.754 -0.338,-0.754 -0.159,0 -0.296,-0.338 -0.601,-1.49 -0.133,-0.499 -0.378,-1.137 -0.544,-1.417 -0.167,-0.28 -0.399,-0.885 -0.515,-1.343 -0.117,-0.458 -0.428,-1.277 -0.691,-1.818 -0.263,-0.542 -0.479,-1.126 -0.479,-1.297 0,-0.172 -0.178,-0.667 -0.395,-1.099 -0.217,-0.432 -0.516,-1.199 -0.663,-1.703 -0.148,-0.504 -0.457,-1.285 -0.688,-1.736 -0.231,-0.451 -0.42,-0.996 -0.42,-1.211 0,-0.377 -0.291,-1.041 -0.536,-1.226 -0.066,-0.049 -0.243,-0.574 -0.394,-1.166 -0.151,-0.593 -0.454,-1.384 -0.673,-1.759 -0.218,-0.374 -0.397,-0.87 -0.397,-1.101 0,-0.231 -0.214,-0.825 -0.474,-1.319 -0.261,-0.494 -0.561,-1.25 -0.667,-1.68 -0.106,-0.431 -0.336,-1.031 -0.51,-1.334 -0.175,-0.303 -0.412,-0.98 -0.526,-1.504 -0.375,-1.725 -0.322,-1.707 -5.211,-1.753 -3.492,-0.033 -4.273,0.003 -4.654,0.214 m 59.316,-0.009 c -0.375,0.375 -0.416,27.133 -0.042,27.626 0.309,0.408 5.832,0.439 6.609,0.037 l 0.492,-0.254 V 91.085 77.512 l -0.375,-0.214 c -0.631,-0.361 -6.33,-0.402 -6.684,-0.049 m 12.601,0.017 -0.542,0.276 v 13.526 13.527 l 0.484,0.286 c 0.607,0.358 6.137,0.432 6.483,0.086 0.149,-0.15 0.2,-2.002 0.2,-7.309 0,-4.777 0.06,-7.282 0.185,-7.639 l 0.185,-0.53 0.483,0.505 c 0.265,0.278 0.546,0.506 0.623,0.506 0.077,0 0.275,0.3 0.441,0.668 0.165,0.367 0.412,0.759 0.548,0.872 0.136,0.113 0.424,0.469 0.641,0.791 0.218,0.322 0.658,0.923 0.979,1.336 0.321,0.412 0.814,1.106 1.097,1.541 0.282,0.436 0.58,0.792 0.662,0.792 0.082,0 0.3,0.296 0.484,0.658 0.185,0.361 0.43,0.718 0.545,0.791 0.116,0.074 0.354,0.397 0.529,0.718 0.29,0.529 0.527,0.849 1.606,2.166 0.321,0.393 0.593,0.773 1.549,2.167 0.219,0.321 0.559,0.726 0.754,0.901 0.196,0.174 0.355,0.38 0.355,0.456 0,0.859 6.493,1.313 7.225,0.505 0.357,-0.395 0.431,-27.306 0.075,-27.662 -0.366,-0.367 -6.573,-0.274 -6.896,0.103 -0.226,0.264 -0.257,1.137 -0.243,6.743 0.019,7.477 -0.157,8.636 -1.075,7.079 -0.176,-0.298 -0.661,-0.981 -1.078,-1.518 -0.417,-0.537 -1,-1.324 -1.297,-1.75 -0.835,-1.196 -1.328,-1.875 -1.958,-2.69 -0.319,-0.413 -0.82,-1.088 -1.113,-1.5 -0.294,-0.413 -0.584,-0.788 -0.645,-0.834 -0.062,-0.046 -0.312,-0.383 -0.557,-0.75 -0.245,-0.366 -0.65,-0.937 -0.9,-1.267 -0.25,-0.33 -0.713,-0.966 -1.03,-1.413 -0.565,-0.797 -0.728,-1.008 -1.451,-1.884 l -0.361,-0.436 -3.223,-0.046 c -2.728,-0.039 -3.306,-0.003 -3.764,0.229 m -169.989,6.389 c 1.97,0.221 4.523,2.109 4.941,3.654 0.09,0.334 0.298,0.795 0.46,1.024 0.463,0.652 0.426,3.971 -0.055,5 -0.193,0.413 -0.398,0.944 -0.455,1.181 -0.324,1.35 -3.181,3.652 -4.948,3.987 -1.855,0.352 -6.277,0.214 -6.57,-0.205 -0.294,-0.42 -0.395,-13.99 -0.107,-14.444 0.286,-0.452 3.604,-0.549 6.734,-0.197 m 103.36,3.417 c 0.14,0.452 0.254,0.961 0.254,1.13 0,0.17 0.19,0.686 0.424,1.146 0.233,0.46 0.502,1.261 0.598,1.779 0.096,0.519 0.359,1.307 0.584,1.752 0.782,1.543 0.369,1.788 -3.015,1.788 -3.39,0 -3.727,-0.481 -2.336,-3.334 0.201,-0.412 0.459,-1.162 0.573,-1.666 0.114,-0.505 0.385,-1.292 0.601,-1.75 0.217,-0.459 0.444,-1.171 0.505,-1.584 0.201,-1.355 0.339,-1.455 0.991,-0.721 0.312,0.351 0.681,1.008 0.821,1.46 M 113.157,98.311 c -0.832,0.864 -0.929,1.131 -0.844,2.335 0.222,3.133 4.767,2.678 4.769,-0.478 0.002,-2.439 -2.31,-3.533 -3.925,-1.857"
     id="path1" />
  <path
     style="fill:#ff0000;fill-opacity:1;stroke:#ff0000;stroke-width:0.27137041;stroke-opacity:1"
     d="m 329.99752,104.93599 -0.61306,-0.13242 0.0703,-13.752853 0.0703,-13.75285 2.57802,-0.08207 c 1.41791,-0.04514 2.9749,-0.0091 3.45997,0.08014 l 0.88196,0.162205 v 13.540209 c 0,10.538509 -0.0752,13.587079 -0.33922,13.751609 -0.38641,0.24082 -5.17898,0.38678 -6.10831,0.18603 z"
     id="path19882"
     inkscape:connector-curvature="0" />
</svg>
